<?xml version="1.0" encoding="utf-8" standalone="no"?>
<!DOCTYPE svg PUBLIC "-//W3C//DTD SVG 1.1//EN"
  "http://www.w3.org/Graphics/SVG/1.1/DTD/svg11.dtd">
<svg xmlns:xlink="http://www.w3.org/1999/xlink" width="802.431562pt" height="444.557812pt" viewBox="0 0 802.431562 444.557812" xmlns="http://www.w3.org/2000/svg" version="1.1">
 <metadata>
  <rdf:RDF xmlns:dc="http://purl.org/dc/elements/1.1/" xmlns:cc="http://creativecommons.org/ns#" xmlns:rdf="http://www.w3.org/1999/02/22-rdf-syntax-ns#">
   <cc:Work>
    <dc:type rdf:resource="http://purl.org/dc/dcmitype/StillImage"/>
    <dc:date>2023-08-30T07:32:30.349274</dc:date>
    <dc:format>image/svg+xml</dc:format>
    <dc:creator>
     <cc:Agent>
      <dc:title>Matplotlib v3.7.2, https://matplotlib.org/</dc:title>
     </cc:Agent>
    </dc:creator>
   </cc:Work>
  </rdf:RDF>
 </metadata>
 <defs>
  <style type="text/css">*{stroke-linejoin: round; stroke-linecap: butt}</style>
 </defs>
 <g id="figure_1">
  <g id="patch_1">
   <path d="M 0 444.557812 
L 802.431562 444.557812 
L 802.431562 0 
L 0 0 
L 0 444.557812 
z
" style="fill: none"/>
  </g>
  <g id="axes_1">
   <g id="patch_2">
    <path d="M 77.951563 379.55 
L 399.051562 379.55 
L 399.051562 63.816 
L 77.951563 63.816 
L 77.951563 379.55 
z
" style="fill: none"/>
   </g>
   <g id="matplotlib.axis_1">
    <g id="xtick_1">
     <g id="line2d_1">
      <path d="M 92.547017 379.55 
L 92.547017 63.816 
" clip-path="url(#p5b8896f8ca)" style="fill: none; stroke: #b0b0b0; stroke-width: 0.8; stroke-linecap: square"/>
     </g>
     <g id="line2d_2">
      <defs>
       <path id="mcd3fd26331" d="M 0 0 
L 0 3.5 
" style="stroke: #000000; stroke-width: 0.8"/>
      </defs>
      <g>
       <use xlink:href="#mcd3fd26331" x="92.547017" y="379.55" style="stroke: #000000; stroke-width: 0.8"/>
      </g>
     </g>
     <g id="text_1">
      <!-- &lt;init&gt; -->
      <g transform="translate(95.306392 419.123437) rotate(-90) scale(0.1 -0.1)">
       <defs>
        <path id="DejaVuSans-3c" d="M 4684 3150 
L 1459 2003 
L 4684 863 
L 4684 294 
L 678 1747 
L 678 2266 
L 4684 3719 
L 4684 3150 
z
" transform="scale(0.015625)"/>
        <path id="DejaVuSans-69" d="M 603 3500 
L 1178 3500 
L 1178 0 
L 603 0 
L 603 3500 
z
M 603 4863 
L 1178 4863 
L 1178 4134 
L 603 4134 
L 603 4863 
z
" transform="scale(0.015625)"/>
        <path id="DejaVuSans-6e" d="M 3513 2113 
L 3513 0 
L 2938 0 
L 2938 2094 
Q 2938 2591 2744 2837 
Q 2550 3084 2163 3084 
Q 1697 3084 1428 2787 
Q 1159 2491 1159 1978 
L 1159 0 
L 581 0 
L 581 3500 
L 1159 3500 
L 1159 2956 
Q 1366 3272 1645 3428 
Q 1925 3584 2291 3584 
Q 2894 3584 3203 3211 
Q 3513 2838 3513 2113 
z
" transform="scale(0.015625)"/>
        <path id="DejaVuSans-74" d="M 1172 4494 
L 1172 3500 
L 2356 3500 
L 2356 3053 
L 1172 3053 
L 1172 1153 
Q 1172 725 1289 603 
Q 1406 481 1766 481 
L 2356 481 
L 2356 0 
L 1766 0 
Q 1100 0 847 248 
Q 594 497 594 1153 
L 594 3053 
L 172 3053 
L 172 3500 
L 594 3500 
L 594 4494 
L 1172 4494 
z
" transform="scale(0.015625)"/>
        <path id="DejaVuSans-3e" d="M 678 3150 
L 678 3719 
L 4684 2266 
L 4684 1747 
L 678 294 
L 678 863 
L 3897 2003 
L 678 3150 
z
" transform="scale(0.015625)"/>
       </defs>
       <use xlink:href="#DejaVuSans-3c"/>
       <use xlink:href="#DejaVuSans-69" x="83.789062"/>
       <use xlink:href="#DejaVuSans-6e" x="111.572266"/>
       <use xlink:href="#DejaVuSans-69" x="174.951172"/>
       <use xlink:href="#DejaVuSans-74" x="202.734375"/>
       <use xlink:href="#DejaVuSans-3e" x="241.943359"/>
      </g>
     </g>
    </g>
    <g id="xtick_2">
     <g id="line2d_3">
      <path d="M 116.872775 379.55 
L 116.872775 63.816 
" clip-path="url(#p5b8896f8ca)" style="fill: none; stroke: #b0b0b0; stroke-width: 0.8; stroke-linecap: square"/>
     </g>
     <g id="line2d_4">
      <g>
       <use xlink:href="#mcd3fd26331" x="116.872775" y="379.55" style="stroke: #000000; stroke-width: 0.8"/>
      </g>
     </g>
     <g id="text_2">
      <!-- &lt;load&gt; -->
      <g transform="translate(119.63215 424.682812) rotate(-90) scale(0.1 -0.1)">
       <defs>
        <path id="DejaVuSans-6c" d="M 603 4863 
L 1178 4863 
L 1178 0 
L 603 0 
L 603 4863 
z
" transform="scale(0.015625)"/>
        <path id="DejaVuSans-6f" d="M 1959 3097 
Q 1497 3097 1228 2736 
Q 959 2375 959 1747 
Q 959 1119 1226 758 
Q 1494 397 1959 397 
Q 2419 397 2687 759 
Q 2956 1122 2956 1747 
Q 2956 2369 2687 2733 
Q 2419 3097 1959 3097 
z
M 1959 3584 
Q 2709 3584 3137 3096 
Q 3566 2609 3566 1747 
Q 3566 888 3137 398 
Q 2709 -91 1959 -91 
Q 1206 -91 779 398 
Q 353 888 353 1747 
Q 353 2609 779 3096 
Q 1206 3584 1959 3584 
z
" transform="scale(0.015625)"/>
        <path id="DejaVuSans-61" d="M 2194 1759 
Q 1497 1759 1228 1600 
Q 959 1441 959 1056 
Q 959 750 1161 570 
Q 1363 391 1709 391 
Q 2188 391 2477 730 
Q 2766 1069 2766 1631 
L 2766 1759 
L 2194 1759 
z
M 3341 1997 
L 3341 0 
L 2766 0 
L 2766 531 
Q 2569 213 2275 61 
Q 1981 -91 1556 -91 
Q 1019 -91 701 211 
Q 384 513 384 1019 
Q 384 1609 779 1909 
Q 1175 2209 1959 2209 
L 2766 2209 
L 2766 2266 
Q 2766 2663 2505 2880 
Q 2244 3097 1772 3097 
Q 1472 3097 1187 3025 
Q 903 2953 641 2809 
L 641 3341 
Q 956 3463 1253 3523 
Q 1550 3584 1831 3584 
Q 2591 3584 2966 3190 
Q 3341 2797 3341 1997 
z
" transform="scale(0.015625)"/>
        <path id="DejaVuSans-64" d="M 2906 2969 
L 2906 4863 
L 3481 4863 
L 3481 0 
L 2906 0 
L 2906 525 
Q 2725 213 2448 61 
Q 2172 -91 1784 -91 
Q 1150 -91 751 415 
Q 353 922 353 1747 
Q 353 2572 751 3078 
Q 1150 3584 1784 3584 
Q 2172 3584 2448 3432 
Q 2725 3281 2906 2969 
z
M 947 1747 
Q 947 1113 1208 752 
Q 1469 391 1925 391 
Q 2381 391 2643 752 
Q 2906 1113 2906 1747 
Q 2906 2381 2643 2742 
Q 2381 3103 1925 3103 
Q 1469 3103 1208 2742 
Q 947 2381 947 1747 
z
" transform="scale(0.015625)"/>
       </defs>
       <use xlink:href="#DejaVuSans-3c"/>
       <use xlink:href="#DejaVuSans-6c" x="83.789062"/>
       <use xlink:href="#DejaVuSans-6f" x="111.572266"/>
       <use xlink:href="#DejaVuSans-61" x="172.753906"/>
       <use xlink:href="#DejaVuSans-64" x="234.033203"/>
       <use xlink:href="#DejaVuSans-3e" x="297.509766"/>
      </g>
     </g>
    </g>
    <g id="xtick_3">
     <g id="line2d_5">
      <path d="M 141.198532 379.55 
L 141.198532 63.816 
" clip-path="url(#p5b8896f8ca)" style="fill: none; stroke: #b0b0b0; stroke-width: 0.8; stroke-linecap: square"/>
     </g>
     <g id="line2d_6">
      <g>
       <use xlink:href="#mcd3fd26331" x="141.198532" y="379.55" style="stroke: #000000; stroke-width: 0.8"/>
      </g>
     </g>
     <g id="text_3">
      <!-- #1 -->
      <g transform="translate(143.957907 401.292187) rotate(-90) scale(0.1 -0.1)">
       <defs>
        <path id="DejaVuSans-23" d="M 3272 2816 
L 2363 2816 
L 2100 1772 
L 3016 1772 
L 3272 2816 
z
M 2803 4594 
L 2478 3297 
L 3391 3297 
L 3719 4594 
L 4219 4594 
L 3897 3297 
L 4872 3297 
L 4872 2816 
L 3775 2816 
L 3519 1772 
L 4513 1772 
L 4513 1294 
L 3397 1294 
L 3072 0 
L 2572 0 
L 2894 1294 
L 1978 1294 
L 1656 0 
L 1153 0 
L 1478 1294 
L 494 1294 
L 494 1772 
L 1594 1772 
L 1856 2816 
L 850 2816 
L 850 3297 
L 1978 3297 
L 2297 4594 
L 2803 4594 
z
" transform="scale(0.015625)"/>
        <path id="DejaVuSans-31" d="M 794 531 
L 1825 531 
L 1825 4091 
L 703 3866 
L 703 4441 
L 1819 4666 
L 2450 4666 
L 2450 531 
L 3481 531 
L 3481 0 
L 794 0 
L 794 531 
z
" transform="scale(0.015625)"/>
       </defs>
       <use xlink:href="#DejaVuSans-23"/>
       <use xlink:href="#DejaVuSans-31" x="83.789062"/>
      </g>
     </g>
    </g>
    <g id="xtick_4">
     <g id="line2d_7">
      <path d="M 165.52429 379.55 
L 165.52429 63.816 
" clip-path="url(#p5b8896f8ca)" style="fill: none; stroke: #b0b0b0; stroke-width: 0.8; stroke-linecap: square"/>
     </g>
     <g id="line2d_8">
      <g>
       <use xlink:href="#mcd3fd26331" x="165.52429" y="379.55" style="stroke: #000000; stroke-width: 0.8"/>
      </g>
     </g>
     <g id="text_4">
      <!-- #2 -->
      <g transform="translate(168.283665 401.292187) rotate(-90) scale(0.1 -0.1)">
       <defs>
        <path id="DejaVuSans-32" d="M 1228 531 
L 3431 531 
L 3431 0 
L 469 0 
L 469 531 
Q 828 903 1448 1529 
Q 2069 2156 2228 2338 
Q 2531 2678 2651 2914 
Q 2772 3150 2772 3378 
Q 2772 3750 2511 3984 
Q 2250 4219 1831 4219 
Q 1534 4219 1204 4116 
Q 875 4013 500 3803 
L 500 4441 
Q 881 4594 1212 4672 
Q 1544 4750 1819 4750 
Q 2544 4750 2975 4387 
Q 3406 4025 3406 3419 
Q 3406 3131 3298 2873 
Q 3191 2616 2906 2266 
Q 2828 2175 2409 1742 
Q 1991 1309 1228 531 
z
" transform="scale(0.015625)"/>
       </defs>
       <use xlink:href="#DejaVuSans-23"/>
       <use xlink:href="#DejaVuSans-32" x="83.789062"/>
      </g>
     </g>
    </g>
    <g id="xtick_5">
     <g id="line2d_9">
      <path d="M 189.850047 379.55 
L 189.850047 63.816 
" clip-path="url(#p5b8896f8ca)" style="fill: none; stroke: #b0b0b0; stroke-width: 0.8; stroke-linecap: square"/>
     </g>
     <g id="line2d_10">
      <g>
       <use xlink:href="#mcd3fd26331" x="189.850047" y="379.55" style="stroke: #000000; stroke-width: 0.8"/>
      </g>
     </g>
     <g id="text_5">
      <!-- #3 -->
      <g transform="translate(192.609422 401.292187) rotate(-90) scale(0.1 -0.1)">
       <defs>
        <path id="DejaVuSans-33" d="M 2597 2516 
Q 3050 2419 3304 2112 
Q 3559 1806 3559 1356 
Q 3559 666 3084 287 
Q 2609 -91 1734 -91 
Q 1441 -91 1130 -33 
Q 819 25 488 141 
L 488 750 
Q 750 597 1062 519 
Q 1375 441 1716 441 
Q 2309 441 2620 675 
Q 2931 909 2931 1356 
Q 2931 1769 2642 2001 
Q 2353 2234 1838 2234 
L 1294 2234 
L 1294 2753 
L 1863 2753 
Q 2328 2753 2575 2939 
Q 2822 3125 2822 3475 
Q 2822 3834 2567 4026 
Q 2313 4219 1838 4219 
Q 1578 4219 1281 4162 
Q 984 4106 628 3988 
L 628 4550 
Q 988 4650 1302 4700 
Q 1616 4750 1894 4750 
Q 2613 4750 3031 4423 
Q 3450 4097 3450 3541 
Q 3450 3153 3228 2886 
Q 3006 2619 2597 2516 
z
" transform="scale(0.015625)"/>
       </defs>
       <use xlink:href="#DejaVuSans-23"/>
       <use xlink:href="#DejaVuSans-33" x="83.789062"/>
      </g>
     </g>
    </g>
    <g id="xtick_6">
     <g id="line2d_11">
      <path d="M 214.175805 379.55 
L 214.175805 63.816 
" clip-path="url(#p5b8896f8ca)" style="fill: none; stroke: #b0b0b0; stroke-width: 0.8; stroke-linecap: square"/>
     </g>
     <g id="line2d_12">
      <g>
       <use xlink:href="#mcd3fd26331" x="214.175805" y="379.55" style="stroke: #000000; stroke-width: 0.8"/>
      </g>
     </g>
     <g id="text_6">
      <!-- #4 -->
      <g transform="translate(216.93518 401.292187) rotate(-90) scale(0.1 -0.1)">
       <defs>
        <path id="DejaVuSans-34" d="M 2419 4116 
L 825 1625 
L 2419 1625 
L 2419 4116 
z
M 2253 4666 
L 3047 4666 
L 3047 1625 
L 3713 1625 
L 3713 1100 
L 3047 1100 
L 3047 0 
L 2419 0 
L 2419 1100 
L 313 1100 
L 313 1709 
L 2253 4666 
z
" transform="scale(0.015625)"/>
       </defs>
       <use xlink:href="#DejaVuSans-23"/>
       <use xlink:href="#DejaVuSans-34" x="83.789062"/>
      </g>
     </g>
    </g>
    <g id="xtick_7">
     <g id="line2d_13">
      <path d="M 238.501562 379.55 
L 238.501562 63.816 
" clip-path="url(#p5b8896f8ca)" style="fill: none; stroke: #b0b0b0; stroke-width: 0.8; stroke-linecap: square"/>
     </g>
     <g id="line2d_14">
      <g>
       <use xlink:href="#mcd3fd26331" x="238.501562" y="379.55" style="stroke: #000000; stroke-width: 0.8"/>
      </g>
     </g>
     <g id="text_7">
      <!-- #5 -->
      <g transform="translate(241.260937 401.292187) rotate(-90) scale(0.1 -0.1)">
       <defs>
        <path id="DejaVuSans-35" d="M 691 4666 
L 3169 4666 
L 3169 4134 
L 1269 4134 
L 1269 2991 
Q 1406 3038 1543 3061 
Q 1681 3084 1819 3084 
Q 2600 3084 3056 2656 
Q 3513 2228 3513 1497 
Q 3513 744 3044 326 
Q 2575 -91 1722 -91 
Q 1428 -91 1123 -41 
Q 819 9 494 109 
L 494 744 
Q 775 591 1075 516 
Q 1375 441 1709 441 
Q 2250 441 2565 725 
Q 2881 1009 2881 1497 
Q 2881 1984 2565 2268 
Q 2250 2553 1709 2553 
Q 1456 2553 1204 2497 
Q 953 2441 691 2322 
L 691 4666 
z
" transform="scale(0.015625)"/>
       </defs>
       <use xlink:href="#DejaVuSans-23"/>
       <use xlink:href="#DejaVuSans-35" x="83.789062"/>
      </g>
     </g>
    </g>
    <g id="xtick_8">
     <g id="line2d_15">
      <path d="M 262.82732 379.55 
L 262.82732 63.816 
" clip-path="url(#p5b8896f8ca)" style="fill: none; stroke: #b0b0b0; stroke-width: 0.8; stroke-linecap: square"/>
     </g>
     <g id="line2d_16">
      <g>
       <use xlink:href="#mcd3fd26331" x="262.82732" y="379.55" style="stroke: #000000; stroke-width: 0.8"/>
      </g>
     </g>
     <g id="text_8">
      <!-- #6 -->
      <g transform="translate(265.586695 401.292187) rotate(-90) scale(0.1 -0.1)">
       <defs>
        <path id="DejaVuSans-36" d="M 2113 2584 
Q 1688 2584 1439 2293 
Q 1191 2003 1191 1497 
Q 1191 994 1439 701 
Q 1688 409 2113 409 
Q 2538 409 2786 701 
Q 3034 994 3034 1497 
Q 3034 2003 2786 2293 
Q 2538 2584 2113 2584 
z
M 3366 4563 
L 3366 3988 
Q 3128 4100 2886 4159 
Q 2644 4219 2406 4219 
Q 1781 4219 1451 3797 
Q 1122 3375 1075 2522 
Q 1259 2794 1537 2939 
Q 1816 3084 2150 3084 
Q 2853 3084 3261 2657 
Q 3669 2231 3669 1497 
Q 3669 778 3244 343 
Q 2819 -91 2113 -91 
Q 1303 -91 875 529 
Q 447 1150 447 2328 
Q 447 3434 972 4092 
Q 1497 4750 2381 4750 
Q 2619 4750 2861 4703 
Q 3103 4656 3366 4563 
z
" transform="scale(0.015625)"/>
       </defs>
       <use xlink:href="#DejaVuSans-23"/>
       <use xlink:href="#DejaVuSans-36" x="83.789062"/>
      </g>
     </g>
    </g>
    <g id="xtick_9">
     <g id="line2d_17">
      <path d="M 287.153078 379.55 
L 287.153078 63.816 
" clip-path="url(#p5b8896f8ca)" style="fill: none; stroke: #b0b0b0; stroke-width: 0.8; stroke-linecap: square"/>
     </g>
     <g id="line2d_18">
      <g>
       <use xlink:href="#mcd3fd26331" x="287.153078" y="379.55" style="stroke: #000000; stroke-width: 0.8"/>
      </g>
     </g>
     <g id="text_9">
      <!-- #7 -->
      <g transform="translate(289.912453 401.292187) rotate(-90) scale(0.1 -0.1)">
       <defs>
        <path id="DejaVuSans-37" d="M 525 4666 
L 3525 4666 
L 3525 4397 
L 1831 0 
L 1172 0 
L 2766 4134 
L 525 4134 
L 525 4666 
z
" transform="scale(0.015625)"/>
       </defs>
       <use xlink:href="#DejaVuSans-23"/>
       <use xlink:href="#DejaVuSans-37" x="83.789062"/>
      </g>
     </g>
    </g>
    <g id="xtick_10">
     <g id="line2d_19">
      <path d="M 311.478835 379.55 
L 311.478835 63.816 
" clip-path="url(#p5b8896f8ca)" style="fill: none; stroke: #b0b0b0; stroke-width: 0.8; stroke-linecap: square"/>
     </g>
     <g id="line2d_20">
      <g>
       <use xlink:href="#mcd3fd26331" x="311.478835" y="379.55" style="stroke: #000000; stroke-width: 0.8"/>
      </g>
     </g>
     <g id="text_10">
      <!-- #8 -->
      <g transform="translate(314.23821 401.292187) rotate(-90) scale(0.1 -0.1)">
       <defs>
        <path id="DejaVuSans-38" d="M 2034 2216 
Q 1584 2216 1326 1975 
Q 1069 1734 1069 1313 
Q 1069 891 1326 650 
Q 1584 409 2034 409 
Q 2484 409 2743 651 
Q 3003 894 3003 1313 
Q 3003 1734 2745 1975 
Q 2488 2216 2034 2216 
z
M 1403 2484 
Q 997 2584 770 2862 
Q 544 3141 544 3541 
Q 544 4100 942 4425 
Q 1341 4750 2034 4750 
Q 2731 4750 3128 4425 
Q 3525 4100 3525 3541 
Q 3525 3141 3298 2862 
Q 3072 2584 2669 2484 
Q 3125 2378 3379 2068 
Q 3634 1759 3634 1313 
Q 3634 634 3220 271 
Q 2806 -91 2034 -91 
Q 1263 -91 848 271 
Q 434 634 434 1313 
Q 434 1759 690 2068 
Q 947 2378 1403 2484 
z
M 1172 3481 
Q 1172 3119 1398 2916 
Q 1625 2713 2034 2713 
Q 2441 2713 2670 2916 
Q 2900 3119 2900 3481 
Q 2900 3844 2670 4047 
Q 2441 4250 2034 4250 
Q 1625 4250 1398 4047 
Q 1172 3844 1172 3481 
z
" transform="scale(0.015625)"/>
       </defs>
       <use xlink:href="#DejaVuSans-23"/>
       <use xlink:href="#DejaVuSans-38" x="83.789062"/>
      </g>
     </g>
    </g>
    <g id="xtick_11">
     <g id="line2d_21">
      <path d="M 335.804593 379.55 
L 335.804593 63.816 
" clip-path="url(#p5b8896f8ca)" style="fill: none; stroke: #b0b0b0; stroke-width: 0.8; stroke-linecap: square"/>
     </g>
     <g id="line2d_22">
      <g>
       <use xlink:href="#mcd3fd26331" x="335.804593" y="379.55" style="stroke: #000000; stroke-width: 0.8"/>
      </g>
     </g>
     <g id="text_11">
      <!-- #9 -->
      <g transform="translate(338.563968 401.292187) rotate(-90) scale(0.1 -0.1)">
       <defs>
        <path id="DejaVuSans-39" d="M 703 97 
L 703 672 
Q 941 559 1184 500 
Q 1428 441 1663 441 
Q 2288 441 2617 861 
Q 2947 1281 2994 2138 
Q 2813 1869 2534 1725 
Q 2256 1581 1919 1581 
Q 1219 1581 811 2004 
Q 403 2428 403 3163 
Q 403 3881 828 4315 
Q 1253 4750 1959 4750 
Q 2769 4750 3195 4129 
Q 3622 3509 3622 2328 
Q 3622 1225 3098 567 
Q 2575 -91 1691 -91 
Q 1453 -91 1209 -44 
Q 966 3 703 97 
z
M 1959 2075 
Q 2384 2075 2632 2365 
Q 2881 2656 2881 3163 
Q 2881 3666 2632 3958 
Q 2384 4250 1959 4250 
Q 1534 4250 1286 3958 
Q 1038 3666 1038 3163 
Q 1038 2656 1286 2365 
Q 1534 2075 1959 2075 
z
" transform="scale(0.015625)"/>
       </defs>
       <use xlink:href="#DejaVuSans-23"/>
       <use xlink:href="#DejaVuSans-39" x="83.789062"/>
      </g>
     </g>
    </g>
    <g id="xtick_12">
     <g id="line2d_23">
      <path d="M 360.13035 379.55 
L 360.13035 63.816 
" clip-path="url(#p5b8896f8ca)" style="fill: none; stroke: #b0b0b0; stroke-width: 0.8; stroke-linecap: square"/>
     </g>
     <g id="line2d_24">
      <g>
       <use xlink:href="#mcd3fd26331" x="360.13035" y="379.55" style="stroke: #000000; stroke-width: 0.8"/>
      </g>
     </g>
     <g id="text_12">
      <!-- #10 -->
      <g transform="translate(362.889725 407.654687) rotate(-90) scale(0.1 -0.1)">
       <defs>
        <path id="DejaVuSans-30" d="M 2034 4250 
Q 1547 4250 1301 3770 
Q 1056 3291 1056 2328 
Q 1056 1369 1301 889 
Q 1547 409 2034 409 
Q 2525 409 2770 889 
Q 3016 1369 3016 2328 
Q 3016 3291 2770 3770 
Q 2525 4250 2034 4250 
z
M 2034 4750 
Q 2819 4750 3233 4129 
Q 3647 3509 3647 2328 
Q 3647 1150 3233 529 
Q 2819 -91 2034 -91 
Q 1250 -91 836 529 
Q 422 1150 422 2328 
Q 422 3509 836 4129 
Q 1250 4750 2034 4750 
z
" transform="scale(0.015625)"/>
       </defs>
       <use xlink:href="#DejaVuSans-23"/>
       <use xlink:href="#DejaVuSans-31" x="83.789062"/>
       <use xlink:href="#DejaVuSans-30" x="147.412109"/>
      </g>
     </g>
    </g>
    <g id="xtick_13">
     <g id="line2d_25">
      <path d="M 384.456108 379.55 
L 384.456108 63.816 
" clip-path="url(#p5b8896f8ca)" style="fill: none; stroke: #b0b0b0; stroke-width: 0.8; stroke-linecap: square"/>
     </g>
     <g id="line2d_26">
      <g>
       <use xlink:href="#mcd3fd26331" x="384.456108" y="379.55" style="stroke: #000000; stroke-width: 0.8"/>
      </g>
     </g>
     <g id="text_13">
      <!-- &lt;unload&gt; -->
      <g transform="translate(387.215483 437.357812) rotate(-90) scale(0.1 -0.1)">
       <defs>
        <path id="DejaVuSans-75" d="M 544 1381 
L 544 3500 
L 1119 3500 
L 1119 1403 
Q 1119 906 1312 657 
Q 1506 409 1894 409 
Q 2359 409 2629 706 
Q 2900 1003 2900 1516 
L 2900 3500 
L 3475 3500 
L 3475 0 
L 2900 0 
L 2900 538 
Q 2691 219 2414 64 
Q 2138 -91 1772 -91 
Q 1169 -91 856 284 
Q 544 659 544 1381 
z
M 1991 3584 
L 1991 3584 
z
" transform="scale(0.015625)"/>
       </defs>
       <use xlink:href="#DejaVuSans-3c"/>
       <use xlink:href="#DejaVuSans-75" x="83.789062"/>
       <use xlink:href="#DejaVuSans-6e" x="147.167969"/>
       <use xlink:href="#DejaVuSans-6c" x="210.546875"/>
       <use xlink:href="#DejaVuSans-6f" x="238.330078"/>
       <use xlink:href="#DejaVuSans-61" x="299.511719"/>
       <use xlink:href="#DejaVuSans-64" x="360.791016"/>
       <use xlink:href="#DejaVuSans-3e" x="424.267578"/>
      </g>
     </g>
    </g>
   </g>
   <g id="matplotlib.axis_2">
    <g id="ytick_1">
     <g id="line2d_27">
      <path d="M 77.951563 365.198455 
L 399.051562 365.198455 
" clip-path="url(#p5b8896f8ca)" style="fill: none; stroke: #b0b0b0; stroke-width: 0.8; stroke-linecap: square"/>
     </g>
     <g id="line2d_28">
      <defs>
       <path id="mc590b7688c" d="M 0 0 
L -3.5 0 
" style="stroke: #000000; stroke-width: 0.8"/>
      </defs>
      <g>
       <use xlink:href="#mc590b7688c" x="77.951563" y="365.198455" style="stroke: #000000; stroke-width: 0.8"/>
      </g>
     </g>
     <g id="text_14">
      <!-- 0.0 Bit -->
      <g transform="translate(38.310938 368.997673) scale(0.1 -0.1)">
       <defs>
        <path id="DejaVuSans-2e" d="M 684 794 
L 1344 794 
L 1344 0 
L 684 0 
L 684 794 
z
" transform="scale(0.015625)"/>
        <path id="DejaVuSans-20" transform="scale(0.015625)"/>
        <path id="DejaVuSans-42" d="M 1259 2228 
L 1259 519 
L 2272 519 
Q 2781 519 3026 730 
Q 3272 941 3272 1375 
Q 3272 1813 3026 2020 
Q 2781 2228 2272 2228 
L 1259 2228 
z
M 1259 4147 
L 1259 2741 
L 2194 2741 
Q 2656 2741 2882 2914 
Q 3109 3088 3109 3444 
Q 3109 3797 2882 3972 
Q 2656 4147 2194 4147 
L 1259 4147 
z
M 628 4666 
L 2241 4666 
Q 2963 4666 3353 4366 
Q 3744 4066 3744 3513 
Q 3744 3084 3544 2831 
Q 3344 2578 2956 2516 
Q 3422 2416 3680 2098 
Q 3938 1781 3938 1306 
Q 3938 681 3513 340 
Q 3088 0 2303 0 
L 628 0 
L 628 4666 
z
" transform="scale(0.015625)"/>
       </defs>
       <use xlink:href="#DejaVuSans-30"/>
       <use xlink:href="#DejaVuSans-2e" x="63.623047"/>
       <use xlink:href="#DejaVuSans-30" x="95.410156"/>
       <use xlink:href="#DejaVuSans-20" x="159.033203"/>
       <use xlink:href="#DejaVuSans-42" x="190.820312"/>
       <use xlink:href="#DejaVuSans-69" x="259.423828"/>
       <use xlink:href="#DejaVuSans-74" x="287.207031"/>
      </g>
     </g>
    </g>
    <g id="ytick_2">
     <g id="line2d_29">
      <path d="M 77.951563 320.101387 
L 399.051562 320.101387 
" clip-path="url(#p5b8896f8ca)" style="fill: none; stroke: #b0b0b0; stroke-width: 0.8; stroke-linecap: square"/>
     </g>
     <g id="line2d_30">
      <g>
       <use xlink:href="#mc590b7688c" x="77.951563" y="320.101387" style="stroke: #000000; stroke-width: 0.8"/>
      </g>
     </g>
     <g id="text_15">
      <!-- 190.7 MiB -->
      <g transform="translate(20.878125 323.900605) scale(0.1 -0.1)">
       <defs>
        <path id="DejaVuSans-4d" d="M 628 4666 
L 1569 4666 
L 2759 1491 
L 3956 4666 
L 4897 4666 
L 4897 0 
L 4281 0 
L 4281 4097 
L 3078 897 
L 2444 897 
L 1241 4097 
L 1241 0 
L 628 0 
L 628 4666 
z
" transform="scale(0.015625)"/>
       </defs>
       <use xlink:href="#DejaVuSans-31"/>
       <use xlink:href="#DejaVuSans-39" x="63.623047"/>
       <use xlink:href="#DejaVuSans-30" x="127.246094"/>
       <use xlink:href="#DejaVuSans-2e" x="190.869141"/>
       <use xlink:href="#DejaVuSans-37" x="222.65625"/>
       <use xlink:href="#DejaVuSans-20" x="286.279297"/>
       <use xlink:href="#DejaVuSans-4d" x="318.066406"/>
       <use xlink:href="#DejaVuSans-69" x="404.345703"/>
       <use xlink:href="#DejaVuSans-42" x="432.128906"/>
      </g>
     </g>
    </g>
    <g id="ytick_3">
     <g id="line2d_31">
      <path d="M 77.951563 275.004319 
L 399.051562 275.004319 
" clip-path="url(#p5b8896f8ca)" style="fill: none; stroke: #b0b0b0; stroke-width: 0.8; stroke-linecap: square"/>
     </g>
     <g id="line2d_32">
      <g>
       <use xlink:href="#mc590b7688c" x="77.951563" y="275.004319" style="stroke: #000000; stroke-width: 0.8"/>
      </g>
     </g>
     <g id="text_16">
      <!-- 381.5 MiB -->
      <g transform="translate(20.878125 278.803537) scale(0.1 -0.1)">
       <use xlink:href="#DejaVuSans-33"/>
       <use xlink:href="#DejaVuSans-38" x="63.623047"/>
       <use xlink:href="#DejaVuSans-31" x="127.246094"/>
       <use xlink:href="#DejaVuSans-2e" x="190.869141"/>
       <use xlink:href="#DejaVuSans-35" x="222.65625"/>
       <use xlink:href="#DejaVuSans-20" x="286.279297"/>
       <use xlink:href="#DejaVuSans-4d" x="318.066406"/>
       <use xlink:href="#DejaVuSans-69" x="404.345703"/>
       <use xlink:href="#DejaVuSans-42" x="432.128906"/>
      </g>
     </g>
    </g>
    <g id="ytick_4">
     <g id="line2d_33">
      <path d="M 77.951563 229.907251 
L 399.051562 229.907251 
" clip-path="url(#p5b8896f8ca)" style="fill: none; stroke: #b0b0b0; stroke-width: 0.8; stroke-linecap: square"/>
     </g>
     <g id="line2d_34">
      <g>
       <use xlink:href="#mc590b7688c" x="77.951563" y="229.907251" style="stroke: #000000; stroke-width: 0.8"/>
      </g>
     </g>
     <g id="text_17">
      <!-- 572.2 MiB -->
      <g transform="translate(20.878125 233.706469) scale(0.1 -0.1)">
       <use xlink:href="#DejaVuSans-35"/>
       <use xlink:href="#DejaVuSans-37" x="63.623047"/>
       <use xlink:href="#DejaVuSans-32" x="127.246094"/>
       <use xlink:href="#DejaVuSans-2e" x="190.869141"/>
       <use xlink:href="#DejaVuSans-32" x="222.65625"/>
       <use xlink:href="#DejaVuSans-20" x="286.279297"/>
       <use xlink:href="#DejaVuSans-4d" x="318.066406"/>
       <use xlink:href="#DejaVuSans-69" x="404.345703"/>
       <use xlink:href="#DejaVuSans-42" x="432.128906"/>
      </g>
     </g>
    </g>
    <g id="ytick_5">
     <g id="line2d_35">
      <path d="M 77.951563 184.810183 
L 399.051562 184.810183 
" clip-path="url(#p5b8896f8ca)" style="fill: none; stroke: #b0b0b0; stroke-width: 0.8; stroke-linecap: square"/>
     </g>
     <g id="line2d_36">
      <g>
       <use xlink:href="#mc590b7688c" x="77.951563" y="184.810183" style="stroke: #000000; stroke-width: 0.8"/>
      </g>
     </g>
     <g id="text_18">
      <!-- 762.9 MiB -->
      <g transform="translate(20.878125 188.609401) scale(0.1 -0.1)">
       <use xlink:href="#DejaVuSans-37"/>
       <use xlink:href="#DejaVuSans-36" x="63.623047"/>
       <use xlink:href="#DejaVuSans-32" x="127.246094"/>
       <use xlink:href="#DejaVuSans-2e" x="190.869141"/>
       <use xlink:href="#DejaVuSans-39" x="222.65625"/>
       <use xlink:href="#DejaVuSans-20" x="286.279297"/>
       <use xlink:href="#DejaVuSans-4d" x="318.066406"/>
       <use xlink:href="#DejaVuSans-69" x="404.345703"/>
       <use xlink:href="#DejaVuSans-42" x="432.128906"/>
      </g>
     </g>
    </g>
    <g id="ytick_6">
     <g id="line2d_37">
      <path d="M 77.951563 139.713115 
L 399.051562 139.713115 
" clip-path="url(#p5b8896f8ca)" style="fill: none; stroke: #b0b0b0; stroke-width: 0.8; stroke-linecap: square"/>
     </g>
     <g id="line2d_38">
      <g>
       <use xlink:href="#mc590b7688c" x="77.951563" y="139.713115" style="stroke: #000000; stroke-width: 0.8"/>
      </g>
     </g>
     <g id="text_19">
      <!-- 953.7 MiB -->
      <g transform="translate(20.878125 143.512333) scale(0.1 -0.1)">
       <use xlink:href="#DejaVuSans-39"/>
       <use xlink:href="#DejaVuSans-35" x="63.623047"/>
       <use xlink:href="#DejaVuSans-33" x="127.246094"/>
       <use xlink:href="#DejaVuSans-2e" x="190.869141"/>
       <use xlink:href="#DejaVuSans-37" x="222.65625"/>
       <use xlink:href="#DejaVuSans-20" x="286.279297"/>
       <use xlink:href="#DejaVuSans-4d" x="318.066406"/>
       <use xlink:href="#DejaVuSans-69" x="404.345703"/>
       <use xlink:href="#DejaVuSans-42" x="432.128906"/>
      </g>
     </g>
    </g>
    <g id="ytick_7">
     <g id="line2d_39">
      <path d="M 77.951563 94.616047 
L 399.051562 94.616047 
" clip-path="url(#p5b8896f8ca)" style="fill: none; stroke: #b0b0b0; stroke-width: 0.8; stroke-linecap: square"/>
     </g>
     <g id="line2d_40">
      <g>
       <use xlink:href="#mc590b7688c" x="77.951563" y="94.616047" style="stroke: #000000; stroke-width: 0.8"/>
      </g>
     </g>
     <g id="text_20">
      <!-- 1.1 GiB -->
      <g transform="translate(34.482813 98.415265) scale(0.1 -0.1)">
       <defs>
        <path id="DejaVuSans-47" d="M 3809 666 
L 3809 1919 
L 2778 1919 
L 2778 2438 
L 4434 2438 
L 4434 434 
Q 4069 175 3628 42 
Q 3188 -91 2688 -91 
Q 1594 -91 976 548 
Q 359 1188 359 2328 
Q 359 3472 976 4111 
Q 1594 4750 2688 4750 
Q 3144 4750 3555 4637 
Q 3966 4525 4313 4306 
L 4313 3634 
Q 3963 3931 3569 4081 
Q 3175 4231 2741 4231 
Q 1884 4231 1454 3753 
Q 1025 3275 1025 2328 
Q 1025 1384 1454 906 
Q 1884 428 2741 428 
Q 3075 428 3337 486 
Q 3600 544 3809 666 
z
" transform="scale(0.015625)"/>
       </defs>
       <use xlink:href="#DejaVuSans-31"/>
       <use xlink:href="#DejaVuSans-2e" x="63.623047"/>
       <use xlink:href="#DejaVuSans-31" x="95.410156"/>
       <use xlink:href="#DejaVuSans-20" x="159.033203"/>
       <use xlink:href="#DejaVuSans-47" x="190.820312"/>
       <use xlink:href="#DejaVuSans-69" x="268.310547"/>
       <use xlink:href="#DejaVuSans-42" x="296.09375"/>
      </g>
     </g>
    </g>
    <g id="text_21">
     <!-- Memory Usage -->
     <g transform="translate(14.798438 259.186125) rotate(-90) scale(0.1 -0.1)">
      <defs>
       <path id="DejaVuSans-65" d="M 3597 1894 
L 3597 1613 
L 953 1613 
Q 991 1019 1311 708 
Q 1631 397 2203 397 
Q 2534 397 2845 478 
Q 3156 559 3463 722 
L 3463 178 
Q 3153 47 2828 -22 
Q 2503 -91 2169 -91 
Q 1331 -91 842 396 
Q 353 884 353 1716 
Q 353 2575 817 3079 
Q 1281 3584 2069 3584 
Q 2775 3584 3186 3129 
Q 3597 2675 3597 1894 
z
M 3022 2063 
Q 3016 2534 2758 2815 
Q 2500 3097 2075 3097 
Q 1594 3097 1305 2825 
Q 1016 2553 972 2059 
L 3022 2063 
z
" transform="scale(0.015625)"/>
       <path id="DejaVuSans-6d" d="M 3328 2828 
Q 3544 3216 3844 3400 
Q 4144 3584 4550 3584 
Q 5097 3584 5394 3201 
Q 5691 2819 5691 2113 
L 5691 0 
L 5113 0 
L 5113 2094 
Q 5113 2597 4934 2840 
Q 4756 3084 4391 3084 
Q 3944 3084 3684 2787 
Q 3425 2491 3425 1978 
L 3425 0 
L 2847 0 
L 2847 2094 
Q 2847 2600 2669 2842 
Q 2491 3084 2119 3084 
Q 1678 3084 1418 2786 
Q 1159 2488 1159 1978 
L 1159 0 
L 581 0 
L 581 3500 
L 1159 3500 
L 1159 2956 
Q 1356 3278 1631 3431 
Q 1906 3584 2284 3584 
Q 2666 3584 2933 3390 
Q 3200 3197 3328 2828 
z
" transform="scale(0.015625)"/>
       <path id="DejaVuSans-72" d="M 2631 2963 
Q 2534 3019 2420 3045 
Q 2306 3072 2169 3072 
Q 1681 3072 1420 2755 
Q 1159 2438 1159 1844 
L 1159 0 
L 581 0 
L 581 3500 
L 1159 3500 
L 1159 2956 
Q 1341 3275 1631 3429 
Q 1922 3584 2338 3584 
Q 2397 3584 2469 3576 
Q 2541 3569 2628 3553 
L 2631 2963 
z
" transform="scale(0.015625)"/>
       <path id="DejaVuSans-79" d="M 2059 -325 
Q 1816 -950 1584 -1140 
Q 1353 -1331 966 -1331 
L 506 -1331 
L 506 -850 
L 844 -850 
Q 1081 -850 1212 -737 
Q 1344 -625 1503 -206 
L 1606 56 
L 191 3500 
L 800 3500 
L 1894 763 
L 2988 3500 
L 3597 3500 
L 2059 -325 
z
" transform="scale(0.015625)"/>
       <path id="DejaVuSans-55" d="M 556 4666 
L 1191 4666 
L 1191 1831 
Q 1191 1081 1462 751 
Q 1734 422 2344 422 
Q 2950 422 3222 751 
Q 3494 1081 3494 1831 
L 3494 4666 
L 4128 4666 
L 4128 1753 
Q 4128 841 3676 375 
Q 3225 -91 2344 -91 
Q 1459 -91 1007 375 
Q 556 841 556 1753 
L 556 4666 
z
" transform="scale(0.015625)"/>
       <path id="DejaVuSans-73" d="M 2834 3397 
L 2834 2853 
Q 2591 2978 2328 3040 
Q 2066 3103 1784 3103 
Q 1356 3103 1142 2972 
Q 928 2841 928 2578 
Q 928 2378 1081 2264 
Q 1234 2150 1697 2047 
L 1894 2003 
Q 2506 1872 2764 1633 
Q 3022 1394 3022 966 
Q 3022 478 2636 193 
Q 2250 -91 1575 -91 
Q 1294 -91 989 -36 
Q 684 19 347 128 
L 347 722 
Q 666 556 975 473 
Q 1284 391 1588 391 
Q 1994 391 2212 530 
Q 2431 669 2431 922 
Q 2431 1156 2273 1281 
Q 2116 1406 1581 1522 
L 1381 1569 
Q 847 1681 609 1914 
Q 372 2147 372 2553 
Q 372 3047 722 3315 
Q 1072 3584 1716 3584 
Q 2034 3584 2315 3537 
Q 2597 3491 2834 3397 
z
" transform="scale(0.015625)"/>
       <path id="DejaVuSans-67" d="M 2906 1791 
Q 2906 2416 2648 2759 
Q 2391 3103 1925 3103 
Q 1463 3103 1205 2759 
Q 947 2416 947 1791 
Q 947 1169 1205 825 
Q 1463 481 1925 481 
Q 2391 481 2648 825 
Q 2906 1169 2906 1791 
z
M 3481 434 
Q 3481 -459 3084 -895 
Q 2688 -1331 1869 -1331 
Q 1566 -1331 1297 -1286 
Q 1028 -1241 775 -1147 
L 775 -588 
Q 1028 -725 1275 -790 
Q 1522 -856 1778 -856 
Q 2344 -856 2625 -561 
Q 2906 -266 2906 331 
L 2906 616 
Q 2728 306 2450 153 
Q 2172 0 1784 0 
Q 1141 0 747 490 
Q 353 981 353 1791 
Q 353 2603 747 3093 
Q 1141 3584 1784 3584 
Q 2172 3584 2450 3431 
Q 2728 3278 2906 2969 
L 2906 3500 
L 3481 3500 
L 3481 434 
z
" transform="scale(0.015625)"/>
      </defs>
      <use xlink:href="#DejaVuSans-4d"/>
      <use xlink:href="#DejaVuSans-65" x="86.279297"/>
      <use xlink:href="#DejaVuSans-6d" x="147.802734"/>
      <use xlink:href="#DejaVuSans-6f" x="245.214844"/>
      <use xlink:href="#DejaVuSans-72" x="306.396484"/>
      <use xlink:href="#DejaVuSans-79" x="347.509766"/>
      <use xlink:href="#DejaVuSans-20" x="406.689453"/>
      <use xlink:href="#DejaVuSans-55" x="438.476562"/>
      <use xlink:href="#DejaVuSans-73" x="511.669922"/>
      <use xlink:href="#DejaVuSans-61" x="563.769531"/>
      <use xlink:href="#DejaVuSans-67" x="625.048828"/>
      <use xlink:href="#DejaVuSans-65" x="688.525391"/>
     </g>
    </g>
   </g>
   <g id="line2d_41">
    <path d="M 92.547017 365.198455 
L 116.872775 174.744182 
L 141.198532 164.710369 
L 165.52429 163.38285 
L 189.850047 162.904431 
L 214.175805 162.904431 
L 238.501562 162.904431 
L 262.82732 162.904431 
L 287.153078 162.904431 
L 311.478835 162.904431 
L 335.804593 162.904431 
L 360.13035 162.904431 
L 384.456108 287.551076 
" clip-path="url(#p5b8896f8ca)" style="fill: none; stroke: #1f77b4; stroke-width: 1.5; stroke-linecap: square"/>
   </g>
   <g id="line2d_42">
    <path d="M 92.547017 365.198455 
L 116.872775 159.696949 
L 141.198532 96.923585 
L 165.52429 78.787642 
L 189.850047 78.59609 
L 214.175805 78.222961 
L 238.501562 78.222961 
L 262.82732 78.173456 
L 287.153078 78.167545 
L 311.478835 78.167545 
L 335.804593 78.167545 
L 360.13035 78.167545 
L 384.456108 286.567824 
" clip-path="url(#p5b8896f8ca)" style="fill: none; stroke: #ff7f0e; stroke-width: 1.5; stroke-linecap: square"/>
   </g>
   <g id="line2d_43">
    <path d="M 92.547017 365.198455 
L 116.872775 217.729628 
L 141.198532 193.491124 
L 165.52429 166.675625 
L 189.850047 166.107296 
L 214.175805 166.106049 
L 238.501562 166.106049 
L 262.82732 166.1018 
L 287.153078 166.1018 
L 311.478835 166.1018 
L 335.804593 166.1018 
L 360.13035 166.1018 
L 384.456108 309.29266 
" clip-path="url(#p5b8896f8ca)" style="fill: none; stroke: #2ca02c; stroke-width: 1.5; stroke-linecap: square"/>
   </g>
   <g id="line2d_44">
    <path d="M 92.547017 365.198455 
L 116.872775 224.504146 
L 141.198532 200.582155 
L 165.52429 172.865928 
L 189.850047 172.328076 
L 214.175805 172.328076 
L 238.501562 172.29769 
L 262.82732 172.267304 
L 287.153078 172.267304 
L 311.478835 172.267304 
L 335.804593 172.267304 
L 360.13035 172.267304 
L 384.456108 312.404967 
" clip-path="url(#p5b8896f8ca)" style="fill: none; stroke: #d62728; stroke-width: 1.5; stroke-linecap: square"/>
   </g>
   <g id="line2d_45">
    <path d="M 92.547017 365.198455 
L 116.872775 192.978902 
L 141.198532 161.982829 
L 165.52429 140.152766 
L 189.850047 139.498865 
L 214.175805 139.498865 
L 238.501562 139.498865 
L 262.82732 139.498865 
L 287.153078 139.498865 
L 311.478835 139.498865 
L 335.804593 139.498865 
L 360.13035 139.498865 
L 384.456108 286.990181 
" clip-path="url(#p5b8896f8ca)" style="fill: none; stroke: #9467bd; stroke-width: 1.5; stroke-linecap: square"/>
   </g>
   <g id="line2d_46">
    <path d="M 92.547017 365.198455 
L 116.872775 248.522096 
L 141.198532 168.236166 
L 165.52429 127.085197 
L 189.850047 126.699876 
L 214.175805 126.699876 
L 238.501562 126.699876 
L 262.82732 126.66949 
L 287.153078 126.66949 
L 311.478835 126.66949 
L 335.804593 126.66949 
L 360.13035 126.66949 
L 384.456108 324.909147 
" clip-path="url(#p5b8896f8ca)" style="fill: none; stroke: #8c564b; stroke-width: 1.5; stroke-linecap: square"/>
   </g>
   <g id="line2d_47">
    <path d="M 92.547017 365.198455 
L 116.872775 255.649009 
L 141.198532 218.560395 
L 165.52429 196.346627 
L 189.850047 196.275419 
L 214.175805 196.294306 
L 238.501562 196.263551 
L 262.82732 196.262673 
L 287.153078 196.248311 
L 311.478835 196.247665 
L 335.804593 196.245448 
L 360.13035 196.250112 
L 384.456108 327.487712 
" clip-path="url(#p5b8896f8ca)" style="fill: none; stroke: #e377c2; stroke-width: 1.5; stroke-linecap: square"/>
   </g>
   <g id="patch_3">
    <path d="M 77.951563 379.55 
L 77.951563 63.816 
" style="fill: none; stroke: #000000; stroke-width: 0.8; stroke-linejoin: miter; stroke-linecap: square"/>
   </g>
   <g id="patch_4">
    <path d="M 399.051562 379.55 
L 399.051562 63.816 
" style="fill: none; stroke: #000000; stroke-width: 0.8; stroke-linejoin: miter; stroke-linecap: square"/>
   </g>
   <g id="patch_5">
    <path d="M 77.951563 379.55 
L 399.051562 379.55 
" style="fill: none; stroke: #000000; stroke-width: 0.8; stroke-linejoin: miter; stroke-linecap: square"/>
   </g>
   <g id="patch_6">
    <path d="M 77.951563 63.816 
L 399.051562 63.816 
" style="fill: none; stroke: #000000; stroke-width: 0.8; stroke-linejoin: miter; stroke-linecap: square"/>
   </g>
   <g id="text_22">
    <!-- Memory Benchmark -->
    <g transform="translate(178.017812 57.816) scale(0.12 -0.12)">
     <defs>
      <path id="DejaVuSans-63" d="M 3122 3366 
L 3122 2828 
Q 2878 2963 2633 3030 
Q 2388 3097 2138 3097 
Q 1578 3097 1268 2742 
Q 959 2388 959 1747 
Q 959 1106 1268 751 
Q 1578 397 2138 397 
Q 2388 397 2633 464 
Q 2878 531 3122 666 
L 3122 134 
Q 2881 22 2623 -34 
Q 2366 -91 2075 -91 
Q 1284 -91 818 406 
Q 353 903 353 1747 
Q 353 2603 823 3093 
Q 1294 3584 2113 3584 
Q 2378 3584 2631 3529 
Q 2884 3475 3122 3366 
z
" transform="scale(0.015625)"/>
      <path id="DejaVuSans-68" d="M 3513 2113 
L 3513 0 
L 2938 0 
L 2938 2094 
Q 2938 2591 2744 2837 
Q 2550 3084 2163 3084 
Q 1697 3084 1428 2787 
Q 1159 2491 1159 1978 
L 1159 0 
L 581 0 
L 581 4863 
L 1159 4863 
L 1159 2956 
Q 1366 3272 1645 3428 
Q 1925 3584 2291 3584 
Q 2894 3584 3203 3211 
Q 3513 2838 3513 2113 
z
" transform="scale(0.015625)"/>
      <path id="DejaVuSans-6b" d="M 581 4863 
L 1159 4863 
L 1159 1991 
L 2875 3500 
L 3609 3500 
L 1753 1863 
L 3688 0 
L 2938 0 
L 1159 1709 
L 1159 0 
L 581 0 
L 581 4863 
z
" transform="scale(0.015625)"/>
     </defs>
     <use xlink:href="#DejaVuSans-4d"/>
     <use xlink:href="#DejaVuSans-65" x="86.279297"/>
     <use xlink:href="#DejaVuSans-6d" x="147.802734"/>
     <use xlink:href="#DejaVuSans-6f" x="245.214844"/>
     <use xlink:href="#DejaVuSans-72" x="306.396484"/>
     <use xlink:href="#DejaVuSans-79" x="347.509766"/>
     <use xlink:href="#DejaVuSans-20" x="406.689453"/>
     <use xlink:href="#DejaVuSans-42" x="438.476562"/>
     <use xlink:href="#DejaVuSans-65" x="507.080078"/>
     <use xlink:href="#DejaVuSans-6e" x="568.603516"/>
     <use xlink:href="#DejaVuSans-63" x="631.982422"/>
     <use xlink:href="#DejaVuSans-68" x="686.962891"/>
     <use xlink:href="#DejaVuSans-6d" x="750.341797"/>
     <use xlink:href="#DejaVuSans-61" x="847.753906"/>
     <use xlink:href="#DejaVuSans-72" x="909.033203"/>
     <use xlink:href="#DejaVuSans-6b" x="950.146484"/>
    </g>
   </g>
   <g id="legend_1">
    <g id="patch_7">
     <path d="M 177.917188 374.55 
L 299.085938 374.55 
Q 301.085938 374.55 301.085938 372.55 
L 301.085938 270.803125 
Q 301.085938 268.803125 299.085938 268.803125 
L 177.917188 268.803125 
Q 175.917188 268.803125 175.917188 270.803125 
L 175.917188 372.55 
Q 175.917188 374.55 177.917188 374.55 
z
" style="fill: #ffffff; opacity: 0.8; stroke: #cccccc; stroke-linejoin: miter"/>
    </g>
    <g id="line2d_48">
     <path d="M 179.917188 276.901562 
L 189.917188 276.901562 
L 199.917188 276.901562 
" style="fill: none; stroke: #1f77b4; stroke-width: 1.5; stroke-linecap: square"/>
    </g>
    <g id="text_23">
     <!-- deepdanbooru -->
     <g transform="translate(207.917188 280.401562) scale(0.1 -0.1)">
      <defs>
       <path id="DejaVuSans-70" d="M 1159 525 
L 1159 -1331 
L 581 -1331 
L 581 3500 
L 1159 3500 
L 1159 2969 
Q 1341 3281 1617 3432 
Q 1894 3584 2278 3584 
Q 2916 3584 3314 3078 
Q 3713 2572 3713 1747 
Q 3713 922 3314 415 
Q 2916 -91 2278 -91 
Q 1894 -91 1617 61 
Q 1341 213 1159 525 
z
M 3116 1747 
Q 3116 2381 2855 2742 
Q 2594 3103 2138 3103 
Q 1681 3103 1420 2742 
Q 1159 2381 1159 1747 
Q 1159 1113 1420 752 
Q 1681 391 2138 391 
Q 2594 391 2855 752 
Q 3116 1113 3116 1747 
z
" transform="scale(0.015625)"/>
       <path id="DejaVuSans-62" d="M 3116 1747 
Q 3116 2381 2855 2742 
Q 2594 3103 2138 3103 
Q 1681 3103 1420 2742 
Q 1159 2381 1159 1747 
Q 1159 1113 1420 752 
Q 1681 391 2138 391 
Q 2594 391 2855 752 
Q 3116 1113 3116 1747 
z
M 1159 2969 
Q 1341 3281 1617 3432 
Q 1894 3584 2278 3584 
Q 2916 3584 3314 3078 
Q 3713 2572 3713 1747 
Q 3713 922 3314 415 
Q 2916 -91 2278 -91 
Q 1894 -91 1617 61 
Q 1341 213 1159 525 
L 1159 0 
L 581 0 
L 581 4863 
L 1159 4863 
L 1159 2969 
z
" transform="scale(0.015625)"/>
      </defs>
      <use xlink:href="#DejaVuSans-64"/>
      <use xlink:href="#DejaVuSans-65" x="63.476562"/>
      <use xlink:href="#DejaVuSans-65" x="125"/>
      <use xlink:href="#DejaVuSans-70" x="186.523438"/>
      <use xlink:href="#DejaVuSans-64" x="250"/>
      <use xlink:href="#DejaVuSans-61" x="313.476562"/>
      <use xlink:href="#DejaVuSans-6e" x="374.755859"/>
      <use xlink:href="#DejaVuSans-62" x="438.134766"/>
      <use xlink:href="#DejaVuSans-6f" x="501.611328"/>
      <use xlink:href="#DejaVuSans-6f" x="562.792969"/>
      <use xlink:href="#DejaVuSans-72" x="623.974609"/>
      <use xlink:href="#DejaVuSans-75" x="665.087891"/>
     </g>
    </g>
    <g id="line2d_49">
     <path d="M 179.917188 291.579687 
L 189.917188 291.579687 
L 199.917188 291.579687 
" style="fill: none; stroke: #ff7f0e; stroke-width: 1.5; stroke-linecap: square"/>
    </g>
    <g id="text_24">
     <!-- wd14-swinv2 -->
     <g transform="translate(207.917188 295.079687) scale(0.1 -0.1)">
      <defs>
       <path id="DejaVuSans-77" d="M 269 3500 
L 844 3500 
L 1563 769 
L 2278 3500 
L 2956 3500 
L 3675 769 
L 4391 3500 
L 4966 3500 
L 4050 0 
L 3372 0 
L 2619 2869 
L 1863 0 
L 1184 0 
L 269 3500 
z
" transform="scale(0.015625)"/>
       <path id="DejaVuSans-2d" d="M 313 2009 
L 1997 2009 
L 1997 1497 
L 313 1497 
L 313 2009 
z
" transform="scale(0.015625)"/>
       <path id="DejaVuSans-76" d="M 191 3500 
L 800 3500 
L 1894 563 
L 2988 3500 
L 3597 3500 
L 2284 0 
L 1503 0 
L 191 3500 
z
" transform="scale(0.015625)"/>
      </defs>
      <use xlink:href="#DejaVuSans-77"/>
      <use xlink:href="#DejaVuSans-64" x="81.787109"/>
      <use xlink:href="#DejaVuSans-31" x="145.263672"/>
      <use xlink:href="#DejaVuSans-34" x="208.886719"/>
      <use xlink:href="#DejaVuSans-2d" x="272.509766"/>
      <use xlink:href="#DejaVuSans-73" x="308.59375"/>
      <use xlink:href="#DejaVuSans-77" x="360.693359"/>
      <use xlink:href="#DejaVuSans-69" x="442.480469"/>
      <use xlink:href="#DejaVuSans-6e" x="470.263672"/>
      <use xlink:href="#DejaVuSans-76" x="533.642578"/>
      <use xlink:href="#DejaVuSans-32" x="592.822266"/>
     </g>
    </g>
    <g id="line2d_50">
     <path d="M 179.917188 306.257812 
L 189.917188 306.257812 
L 199.917188 306.257812 
" style="fill: none; stroke: #2ca02c; stroke-width: 1.5; stroke-linecap: square"/>
    </g>
    <g id="text_25">
     <!-- wd14-convnext -->
     <g transform="translate(207.917188 309.757812) scale(0.1 -0.1)">
      <defs>
       <path id="DejaVuSans-78" d="M 3513 3500 
L 2247 1797 
L 3578 0 
L 2900 0 
L 1881 1375 
L 863 0 
L 184 0 
L 1544 1831 
L 300 3500 
L 978 3500 
L 1906 2253 
L 2834 3500 
L 3513 3500 
z
" transform="scale(0.015625)"/>
      </defs>
      <use xlink:href="#DejaVuSans-77"/>
      <use xlink:href="#DejaVuSans-64" x="81.787109"/>
      <use xlink:href="#DejaVuSans-31" x="145.263672"/>
      <use xlink:href="#DejaVuSans-34" x="208.886719"/>
      <use xlink:href="#DejaVuSans-2d" x="272.509766"/>
      <use xlink:href="#DejaVuSans-63" x="308.59375"/>
      <use xlink:href="#DejaVuSans-6f" x="363.574219"/>
      <use xlink:href="#DejaVuSans-6e" x="424.755859"/>
      <use xlink:href="#DejaVuSans-76" x="488.134766"/>
      <use xlink:href="#DejaVuSans-6e" x="547.314453"/>
      <use xlink:href="#DejaVuSans-65" x="610.693359"/>
      <use xlink:href="#DejaVuSans-78" x="670.466797"/>
      <use xlink:href="#DejaVuSans-74" x="729.646484"/>
     </g>
    </g>
    <g id="line2d_51">
     <path d="M 179.917188 320.935937 
L 189.917188 320.935937 
L 199.917188 320.935937 
" style="fill: none; stroke: #d62728; stroke-width: 1.5; stroke-linecap: square"/>
    </g>
    <g id="text_26">
     <!-- wd14-convnextv2 -->
     <g transform="translate(207.917188 324.435937) scale(0.1 -0.1)">
      <use xlink:href="#DejaVuSans-77"/>
      <use xlink:href="#DejaVuSans-64" x="81.787109"/>
      <use xlink:href="#DejaVuSans-31" x="145.263672"/>
      <use xlink:href="#DejaVuSans-34" x="208.886719"/>
      <use xlink:href="#DejaVuSans-2d" x="272.509766"/>
      <use xlink:href="#DejaVuSans-63" x="308.59375"/>
      <use xlink:href="#DejaVuSans-6f" x="363.574219"/>
      <use xlink:href="#DejaVuSans-6e" x="424.755859"/>
      <use xlink:href="#DejaVuSans-76" x="488.134766"/>
      <use xlink:href="#DejaVuSans-6e" x="547.314453"/>
      <use xlink:href="#DejaVuSans-65" x="610.693359"/>
      <use xlink:href="#DejaVuSans-78" x="670.466797"/>
      <use xlink:href="#DejaVuSans-74" x="729.646484"/>
      <use xlink:href="#DejaVuSans-76" x="768.855469"/>
      <use xlink:href="#DejaVuSans-32" x="828.035156"/>
     </g>
    </g>
    <g id="line2d_52">
     <path d="M 179.917188 335.614062 
L 189.917188 335.614062 
L 199.917188 335.614062 
" style="fill: none; stroke: #9467bd; stroke-width: 1.5; stroke-linecap: square"/>
    </g>
    <g id="text_27">
     <!-- wd14-vit -->
     <g transform="translate(207.917188 339.114062) scale(0.1 -0.1)">
      <use xlink:href="#DejaVuSans-77"/>
      <use xlink:href="#DejaVuSans-64" x="81.787109"/>
      <use xlink:href="#DejaVuSans-31" x="145.263672"/>
      <use xlink:href="#DejaVuSans-34" x="208.886719"/>
      <use xlink:href="#DejaVuSans-2d" x="272.509766"/>
      <use xlink:href="#DejaVuSans-76" x="305.96875"/>
      <use xlink:href="#DejaVuSans-69" x="365.148438"/>
      <use xlink:href="#DejaVuSans-74" x="392.931641"/>
     </g>
    </g>
    <g id="line2d_53">
     <path d="M 179.917188 350.292187 
L 189.917188 350.292187 
L 199.917188 350.292187 
" style="fill: none; stroke: #8c564b; stroke-width: 1.5; stroke-linecap: square"/>
    </g>
    <g id="text_28">
     <!-- wd14-moat -->
     <g transform="translate(207.917188 353.792187) scale(0.1 -0.1)">
      <use xlink:href="#DejaVuSans-77"/>
      <use xlink:href="#DejaVuSans-64" x="81.787109"/>
      <use xlink:href="#DejaVuSans-31" x="145.263672"/>
      <use xlink:href="#DejaVuSans-34" x="208.886719"/>
      <use xlink:href="#DejaVuSans-2d" x="272.509766"/>
      <use xlink:href="#DejaVuSans-6d" x="308.59375"/>
      <use xlink:href="#DejaVuSans-6f" x="406.005859"/>
      <use xlink:href="#DejaVuSans-61" x="467.1875"/>
      <use xlink:href="#DejaVuSans-74" x="528.466797"/>
     </g>
    </g>
    <g id="line2d_54">
     <path d="M 179.917188 364.970312 
L 189.917188 364.970312 
L 199.917188 364.970312 
" style="fill: none; stroke: #e377c2; stroke-width: 1.5; stroke-linecap: square"/>
    </g>
    <g id="text_29">
     <!-- mldanbooru -->
     <g transform="translate(207.917188 368.470312) scale(0.1 -0.1)">
      <use xlink:href="#DejaVuSans-6d"/>
      <use xlink:href="#DejaVuSans-6c" x="97.412109"/>
      <use xlink:href="#DejaVuSans-64" x="125.195312"/>
      <use xlink:href="#DejaVuSans-61" x="188.671875"/>
      <use xlink:href="#DejaVuSans-6e" x="249.951172"/>
      <use xlink:href="#DejaVuSans-62" x="313.330078"/>
      <use xlink:href="#DejaVuSans-6f" x="376.806641"/>
      <use xlink:href="#DejaVuSans-6f" x="437.988281"/>
      <use xlink:href="#DejaVuSans-72" x="499.169922"/>
      <use xlink:href="#DejaVuSans-75" x="540.283203"/>
     </g>
    </g>
   </g>
  </g>
  <g id="axes_2">
   <g id="patch_8">
    <path d="M 474.131562 379.55 
L 795.231562 379.55 
L 795.231562 63.816 
L 474.131562 63.816 
L 474.131562 379.55 
z
" style="fill: none"/>
   </g>
   <g id="matplotlib.axis_3">
    <g id="xtick_14">
     <g id="line2d_55">
      <path d="M 488.727017 379.55 
L 488.727017 63.816 
" clip-path="url(#p0af0544726)" style="fill: none; stroke: #b0b0b0; stroke-width: 0.8; stroke-linecap: square"/>
     </g>
     <g id="line2d_56">
      <g>
       <use xlink:href="#mcd3fd26331" x="488.727017" y="379.55" style="stroke: #000000; stroke-width: 0.8"/>
      </g>
     </g>
     <g id="text_30">
      <!-- &lt;init&gt; -->
      <g transform="translate(491.486392 419.123437) rotate(-90) scale(0.1 -0.1)">
       <use xlink:href="#DejaVuSans-3c"/>
       <use xlink:href="#DejaVuSans-69" x="83.789062"/>
       <use xlink:href="#DejaVuSans-6e" x="111.572266"/>
       <use xlink:href="#DejaVuSans-69" x="174.951172"/>
       <use xlink:href="#DejaVuSans-74" x="202.734375"/>
       <use xlink:href="#DejaVuSans-3e" x="241.943359"/>
      </g>
     </g>
    </g>
    <g id="xtick_15">
     <g id="line2d_57">
      <path d="M 513.052775 379.55 
L 513.052775 63.816 
" clip-path="url(#p0af0544726)" style="fill: none; stroke: #b0b0b0; stroke-width: 0.8; stroke-linecap: square"/>
     </g>
     <g id="line2d_58">
      <g>
       <use xlink:href="#mcd3fd26331" x="513.052775" y="379.55" style="stroke: #000000; stroke-width: 0.8"/>
      </g>
     </g>
     <g id="text_31">
      <!-- &lt;load&gt; -->
      <g transform="translate(515.81215 424.682812) rotate(-90) scale(0.1 -0.1)">
       <use xlink:href="#DejaVuSans-3c"/>
       <use xlink:href="#DejaVuSans-6c" x="83.789062"/>
       <use xlink:href="#DejaVuSans-6f" x="111.572266"/>
       <use xlink:href="#DejaVuSans-61" x="172.753906"/>
       <use xlink:href="#DejaVuSans-64" x="234.033203"/>
       <use xlink:href="#DejaVuSans-3e" x="297.509766"/>
      </g>
     </g>
    </g>
    <g id="xtick_16">
     <g id="line2d_59">
      <path d="M 537.378532 379.55 
L 537.378532 63.816 
" clip-path="url(#p0af0544726)" style="fill: none; stroke: #b0b0b0; stroke-width: 0.8; stroke-linecap: square"/>
     </g>
     <g id="line2d_60">
      <g>
       <use xlink:href="#mcd3fd26331" x="537.378532" y="379.55" style="stroke: #000000; stroke-width: 0.8"/>
      </g>
     </g>
     <g id="text_32">
      <!-- #1 -->
      <g transform="translate(540.137907 401.292187) rotate(-90) scale(0.1 -0.1)">
       <use xlink:href="#DejaVuSans-23"/>
       <use xlink:href="#DejaVuSans-31" x="83.789062"/>
      </g>
     </g>
    </g>
    <g id="xtick_17">
     <g id="line2d_61">
      <path d="M 561.70429 379.55 
L 561.70429 63.816 
" clip-path="url(#p0af0544726)" style="fill: none; stroke: #b0b0b0; stroke-width: 0.8; stroke-linecap: square"/>
     </g>
     <g id="line2d_62">
      <g>
       <use xlink:href="#mcd3fd26331" x="561.70429" y="379.55" style="stroke: #000000; stroke-width: 0.8"/>
      </g>
     </g>
     <g id="text_33">
      <!-- #2 -->
      <g transform="translate(564.463665 401.292187) rotate(-90) scale(0.1 -0.1)">
       <use xlink:href="#DejaVuSans-23"/>
       <use xlink:href="#DejaVuSans-32" x="83.789062"/>
      </g>
     </g>
    </g>
    <g id="xtick_18">
     <g id="line2d_63">
      <path d="M 586.030047 379.55 
L 586.030047 63.816 
" clip-path="url(#p0af0544726)" style="fill: none; stroke: #b0b0b0; stroke-width: 0.8; stroke-linecap: square"/>
     </g>
     <g id="line2d_64">
      <g>
       <use xlink:href="#mcd3fd26331" x="586.030047" y="379.55" style="stroke: #000000; stroke-width: 0.8"/>
      </g>
     </g>
     <g id="text_34">
      <!-- #3 -->
      <g transform="translate(588.789422 401.292187) rotate(-90) scale(0.1 -0.1)">
       <use xlink:href="#DejaVuSans-23"/>
       <use xlink:href="#DejaVuSans-33" x="83.789062"/>
      </g>
     </g>
    </g>
    <g id="xtick_19">
     <g id="line2d_65">
      <path d="M 610.355805 379.55 
L 610.355805 63.816 
" clip-path="url(#p0af0544726)" style="fill: none; stroke: #b0b0b0; stroke-width: 0.8; stroke-linecap: square"/>
     </g>
     <g id="line2d_66">
      <g>
       <use xlink:href="#mcd3fd26331" x="610.355805" y="379.55" style="stroke: #000000; stroke-width: 0.8"/>
      </g>
     </g>
     <g id="text_35">
      <!-- #4 -->
      <g transform="translate(613.11518 401.292187) rotate(-90) scale(0.1 -0.1)">
       <use xlink:href="#DejaVuSans-23"/>
       <use xlink:href="#DejaVuSans-34" x="83.789062"/>
      </g>
     </g>
    </g>
    <g id="xtick_20">
     <g id="line2d_67">
      <path d="M 634.681562 379.55 
L 634.681562 63.816 
" clip-path="url(#p0af0544726)" style="fill: none; stroke: #b0b0b0; stroke-width: 0.8; stroke-linecap: square"/>
     </g>
     <g id="line2d_68">
      <g>
       <use xlink:href="#mcd3fd26331" x="634.681562" y="379.55" style="stroke: #000000; stroke-width: 0.8"/>
      </g>
     </g>
     <g id="text_36">
      <!-- #5 -->
      <g transform="translate(637.440937 401.292187) rotate(-90) scale(0.1 -0.1)">
       <use xlink:href="#DejaVuSans-23"/>
       <use xlink:href="#DejaVuSans-35" x="83.789062"/>
      </g>
     </g>
    </g>
    <g id="xtick_21">
     <g id="line2d_69">
      <path d="M 659.00732 379.55 
L 659.00732 63.816 
" clip-path="url(#p0af0544726)" style="fill: none; stroke: #b0b0b0; stroke-width: 0.8; stroke-linecap: square"/>
     </g>
     <g id="line2d_70">
      <g>
       <use xlink:href="#mcd3fd26331" x="659.00732" y="379.55" style="stroke: #000000; stroke-width: 0.8"/>
      </g>
     </g>
     <g id="text_37">
      <!-- #6 -->
      <g transform="translate(661.766695 401.292187) rotate(-90) scale(0.1 -0.1)">
       <use xlink:href="#DejaVuSans-23"/>
       <use xlink:href="#DejaVuSans-36" x="83.789062"/>
      </g>
     </g>
    </g>
    <g id="xtick_22">
     <g id="line2d_71">
      <path d="M 683.333078 379.55 
L 683.333078 63.816 
" clip-path="url(#p0af0544726)" style="fill: none; stroke: #b0b0b0; stroke-width: 0.8; stroke-linecap: square"/>
     </g>
     <g id="line2d_72">
      <g>
       <use xlink:href="#mcd3fd26331" x="683.333078" y="379.55" style="stroke: #000000; stroke-width: 0.8"/>
      </g>
     </g>
     <g id="text_38">
      <!-- #7 -->
      <g transform="translate(686.092453 401.292187) rotate(-90) scale(0.1 -0.1)">
       <use xlink:href="#DejaVuSans-23"/>
       <use xlink:href="#DejaVuSans-37" x="83.789062"/>
      </g>
     </g>
    </g>
    <g id="xtick_23">
     <g id="line2d_73">
      <path d="M 707.658835 379.55 
L 707.658835 63.816 
" clip-path="url(#p0af0544726)" style="fill: none; stroke: #b0b0b0; stroke-width: 0.8; stroke-linecap: square"/>
     </g>
     <g id="line2d_74">
      <g>
       <use xlink:href="#mcd3fd26331" x="707.658835" y="379.55" style="stroke: #000000; stroke-width: 0.8"/>
      </g>
     </g>
     <g id="text_39">
      <!-- #8 -->
      <g transform="translate(710.41821 401.292187) rotate(-90) scale(0.1 -0.1)">
       <use xlink:href="#DejaVuSans-23"/>
       <use xlink:href="#DejaVuSans-38" x="83.789062"/>
      </g>
     </g>
    </g>
    <g id="xtick_24">
     <g id="line2d_75">
      <path d="M 731.984593 379.55 
L 731.984593 63.816 
" clip-path="url(#p0af0544726)" style="fill: none; stroke: #b0b0b0; stroke-width: 0.8; stroke-linecap: square"/>
     </g>
     <g id="line2d_76">
      <g>
       <use xlink:href="#mcd3fd26331" x="731.984593" y="379.55" style="stroke: #000000; stroke-width: 0.8"/>
      </g>
     </g>
     <g id="text_40">
      <!-- #9 -->
      <g transform="translate(734.743968 401.292187) rotate(-90) scale(0.1 -0.1)">
       <use xlink:href="#DejaVuSans-23"/>
       <use xlink:href="#DejaVuSans-39" x="83.789062"/>
      </g>
     </g>
    </g>
    <g id="xtick_25">
     <g id="line2d_77">
      <path d="M 756.31035 379.55 
L 756.31035 63.816 
" clip-path="url(#p0af0544726)" style="fill: none; stroke: #b0b0b0; stroke-width: 0.8; stroke-linecap: square"/>
     </g>
     <g id="line2d_78">
      <g>
       <use xlink:href="#mcd3fd26331" x="756.31035" y="379.55" style="stroke: #000000; stroke-width: 0.8"/>
      </g>
     </g>
     <g id="text_41">
      <!-- #10 -->
      <g transform="translate(759.069725 407.654687) rotate(-90) scale(0.1 -0.1)">
       <use xlink:href="#DejaVuSans-23"/>
       <use xlink:href="#DejaVuSans-31" x="83.789062"/>
       <use xlink:href="#DejaVuSans-30" x="147.412109"/>
      </g>
     </g>
    </g>
    <g id="xtick_26">
     <g id="line2d_79">
      <path d="M 780.636108 379.55 
L 780.636108 63.816 
" clip-path="url(#p0af0544726)" style="fill: none; stroke: #b0b0b0; stroke-width: 0.8; stroke-linecap: square"/>
     </g>
     <g id="line2d_80">
      <g>
       <use xlink:href="#mcd3fd26331" x="780.636108" y="379.55" style="stroke: #000000; stroke-width: 0.8"/>
      </g>
     </g>
     <g id="text_42">
      <!-- &lt;unload&gt; -->
      <g transform="translate(783.395483 437.357812) rotate(-90) scale(0.1 -0.1)">
       <use xlink:href="#DejaVuSans-3c"/>
       <use xlink:href="#DejaVuSans-75" x="83.789062"/>
       <use xlink:href="#DejaVuSans-6e" x="147.167969"/>
       <use xlink:href="#DejaVuSans-6c" x="210.546875"/>
       <use xlink:href="#DejaVuSans-6f" x="238.330078"/>
       <use xlink:href="#DejaVuSans-61" x="299.511719"/>
       <use xlink:href="#DejaVuSans-64" x="360.791016"/>
       <use xlink:href="#DejaVuSans-3e" x="424.267578"/>
      </g>
     </g>
    </g>
   </g>
   <g id="matplotlib.axis_4">
    <g id="ytick_8">
     <g id="line2d_81">
      <path d="M 474.131562 365.198455 
L 795.231562 365.198455 
" clip-path="url(#p0af0544726)" style="fill: none; stroke: #b0b0b0; stroke-width: 0.8; stroke-linecap: square"/>
     </g>
     <g id="line2d_82">
      <g>
       <use xlink:href="#mc590b7688c" x="474.131562" y="365.198455" style="stroke: #000000; stroke-width: 0.8"/>
      </g>
     </g>
     <g id="text_43">
      <!-- 0.0ns -->
      <g transform="translate(439.681562 368.997673) scale(0.1 -0.1)">
       <use xlink:href="#DejaVuSans-30"/>
       <use xlink:href="#DejaVuSans-2e" x="63.623047"/>
       <use xlink:href="#DejaVuSans-30" x="95.410156"/>
       <use xlink:href="#DejaVuSans-6e" x="159.033203"/>
       <use xlink:href="#DejaVuSans-73" x="222.412109"/>
      </g>
     </g>
    </g>
    <g id="ytick_9">
     <g id="line2d_83">
      <path d="M 474.131562 303.566048 
L 795.231562 303.566048 
" clip-path="url(#p0af0544726)" style="fill: none; stroke: #b0b0b0; stroke-width: 0.8; stroke-linecap: square"/>
     </g>
     <g id="line2d_84">
      <g>
       <use xlink:href="#mc590b7688c" x="474.131562" y="303.566048" style="stroke: #000000; stroke-width: 0.8"/>
      </g>
     </g>
     <g id="text_44">
      <!-- 500.0ms -->
      <g transform="translate(423.553437 307.365266) scale(0.1 -0.1)">
       <use xlink:href="#DejaVuSans-35"/>
       <use xlink:href="#DejaVuSans-30" x="63.623047"/>
       <use xlink:href="#DejaVuSans-30" x="127.246094"/>
       <use xlink:href="#DejaVuSans-2e" x="190.869141"/>
       <use xlink:href="#DejaVuSans-30" x="222.65625"/>
       <use xlink:href="#DejaVuSans-6d" x="286.279297"/>
       <use xlink:href="#DejaVuSans-73" x="383.691406"/>
      </g>
     </g>
    </g>
    <g id="ytick_10">
     <g id="line2d_85">
      <path d="M 474.131562 241.933641 
L 795.231562 241.933641 
" clip-path="url(#p0af0544726)" style="fill: none; stroke: #b0b0b0; stroke-width: 0.8; stroke-linecap: square"/>
     </g>
     <g id="line2d_86">
      <g>
       <use xlink:href="#mc590b7688c" x="474.131562" y="241.933641" style="stroke: #000000; stroke-width: 0.8"/>
      </g>
     </g>
     <g id="text_45">
      <!-- 1.0s -->
      <g transform="translate(446.019062 245.732859) scale(0.1 -0.1)">
       <use xlink:href="#DejaVuSans-31"/>
       <use xlink:href="#DejaVuSans-2e" x="63.623047"/>
       <use xlink:href="#DejaVuSans-30" x="95.410156"/>
       <use xlink:href="#DejaVuSans-73" x="159.033203"/>
      </g>
     </g>
    </g>
    <g id="ytick_11">
     <g id="line2d_87">
      <path d="M 474.131562 180.301234 
L 795.231562 180.301234 
" clip-path="url(#p0af0544726)" style="fill: none; stroke: #b0b0b0; stroke-width: 0.8; stroke-linecap: square"/>
     </g>
     <g id="line2d_88">
      <g>
       <use xlink:href="#mc590b7688c" x="474.131562" y="180.301234" style="stroke: #000000; stroke-width: 0.8"/>
      </g>
     </g>
     <g id="text_46">
      <!-- 1.5s -->
      <g transform="translate(446.019062 184.100452) scale(0.1 -0.1)">
       <use xlink:href="#DejaVuSans-31"/>
       <use xlink:href="#DejaVuSans-2e" x="63.623047"/>
       <use xlink:href="#DejaVuSans-35" x="95.410156"/>
       <use xlink:href="#DejaVuSans-73" x="159.033203"/>
      </g>
     </g>
    </g>
    <g id="ytick_12">
     <g id="line2d_89">
      <path d="M 474.131562 118.668827 
L 795.231562 118.668827 
" clip-path="url(#p0af0544726)" style="fill: none; stroke: #b0b0b0; stroke-width: 0.8; stroke-linecap: square"/>
     </g>
     <g id="line2d_90">
      <g>
       <use xlink:href="#mc590b7688c" x="474.131562" y="118.668827" style="stroke: #000000; stroke-width: 0.8"/>
      </g>
     </g>
     <g id="text_47">
      <!-- 2.0s -->
      <g transform="translate(446.019062 122.468045) scale(0.1 -0.1)">
       <use xlink:href="#DejaVuSans-32"/>
       <use xlink:href="#DejaVuSans-2e" x="63.623047"/>
       <use xlink:href="#DejaVuSans-30" x="95.410156"/>
       <use xlink:href="#DejaVuSans-73" x="159.033203"/>
      </g>
     </g>
    </g>
    <g id="text_48">
     <!-- Time Cost -->
     <g transform="translate(417.47375 246.621281) rotate(-90) scale(0.1 -0.1)">
      <defs>
       <path id="DejaVuSans-54" d="M -19 4666 
L 3928 4666 
L 3928 4134 
L 2272 4134 
L 2272 0 
L 1638 0 
L 1638 4134 
L -19 4134 
L -19 4666 
z
" transform="scale(0.015625)"/>
       <path id="DejaVuSans-43" d="M 4122 4306 
L 4122 3641 
Q 3803 3938 3442 4084 
Q 3081 4231 2675 4231 
Q 1875 4231 1450 3742 
Q 1025 3253 1025 2328 
Q 1025 1406 1450 917 
Q 1875 428 2675 428 
Q 3081 428 3442 575 
Q 3803 722 4122 1019 
L 4122 359 
Q 3791 134 3420 21 
Q 3050 -91 2638 -91 
Q 1578 -91 968 557 
Q 359 1206 359 2328 
Q 359 3453 968 4101 
Q 1578 4750 2638 4750 
Q 3056 4750 3426 4639 
Q 3797 4528 4122 4306 
z
" transform="scale(0.015625)"/>
      </defs>
      <use xlink:href="#DejaVuSans-54"/>
      <use xlink:href="#DejaVuSans-69" x="57.958984"/>
      <use xlink:href="#DejaVuSans-6d" x="85.742188"/>
      <use xlink:href="#DejaVuSans-65" x="183.154297"/>
      <use xlink:href="#DejaVuSans-20" x="244.677734"/>
      <use xlink:href="#DejaVuSans-43" x="276.464844"/>
      <use xlink:href="#DejaVuSans-6f" x="346.289062"/>
      <use xlink:href="#DejaVuSans-73" x="407.470703"/>
      <use xlink:href="#DejaVuSans-74" x="459.570312"/>
     </g>
    </g>
   </g>
   <g id="line2d_91">
    <path d="M 488.727017 365.198455 
L 513.052775 130.579515 
L 537.378532 295.014576 
L 561.70429 308.232304 
L 586.030047 296.662397 
L 610.355805 306.854968 
L 634.681562 307.008462 
L 659.00732 308.675477 
L 683.333078 306.194485 
L 707.658835 308.771999 
L 731.984593 306.924325 
L 756.31035 308.295419 
L 780.636108 364.094715 
" clip-path="url(#p0af0544726)" style="fill: none; stroke: #1f77b4; stroke-width: 1.5; stroke-linecap: square"/>
   </g>
   <g id="line2d_92">
    <path d="M 488.727017 365.198455 
L 513.052775 178.081263 
L 537.378532 171.987404 
L 561.70429 190.383432 
L 586.030047 182.462989 
L 610.355805 192.134389 
L 634.681562 192.680144 
L 659.00732 192.91237 
L 683.333078 192.763939 
L 707.658835 191.631361 
L 731.984593 192.459696 
L 756.31035 192.02969 
L 780.636108 363.144371 
" clip-path="url(#p0af0544726)" style="fill: none; stroke: #ff7f0e; stroke-width: 1.5; stroke-linecap: square"/>
   </g>
   <g id="line2d_93">
    <path d="M 488.727017 365.198455 
L 513.052775 233.136725 
L 537.378532 239.352204 
L 561.70429 249.590667 
L 586.030047 241.59106 
L 610.355805 252.980418 
L 634.681562 252.763285 
L 659.00732 253.581508 
L 683.333078 251.810539 
L 707.658835 253.685579 
L 731.984593 253.091733 
L 756.31035 253.313603 
L 780.636108 363.496715 
" clip-path="url(#p0af0544726)" style="fill: none; stroke: #2ca02c; stroke-width: 1.5; stroke-linecap: square"/>
   </g>
   <g id="line2d_94">
    <path d="M 488.727017 365.198455 
L 513.052775 220.145077 
L 537.378532 229.200435 
L 561.70429 240.343988 
L 586.030047 232.028098 
L 610.355805 242.521437 
L 634.681562 240.575626 
L 659.00732 242.15247 
L 683.333078 243.135735 
L 707.658835 242.917877 
L 731.984593 243.487004 
L 756.31035 242.939778 
L 780.636108 363.443052 
" clip-path="url(#p0af0544726)" style="fill: none; stroke: #d62728; stroke-width: 1.5; stroke-linecap: square"/>
   </g>
   <g id="line2d_95">
    <path d="M 488.727017 365.198455 
L 513.052775 239.036091 
L 537.378532 180.254293 
L 561.70429 191.051954 
L 586.030047 183.475049 
L 610.355805 194.037838 
L 634.681562 193.705045 
L 659.00732 191.972616 
L 683.333078 194.748583 
L 707.658835 193.385784 
L 731.984593 194.922808 
L 756.31035 195.575187 
L 780.636108 363.77299 
" clip-path="url(#p0af0544726)" style="fill: none; stroke: #9467bd; stroke-width: 1.5; stroke-linecap: square"/>
   </g>
   <g id="line2d_96">
    <path d="M 488.727017 365.198455 
L 513.052775 233.055081 
L 537.378532 182.408639 
L 561.70429 193.280031 
L 586.030047 189.528714 
L 610.355805 198.335331 
L 634.681562 198.782645 
L 659.00732 197.628461 
L 683.333078 198.348716 
L 707.658835 199.254908 
L 731.984593 197.706925 
L 756.31035 198.618394 
L 780.636108 362.854262 
" clip-path="url(#p0af0544726)" style="fill: none; stroke: #8c564b; stroke-width: 1.5; stroke-linecap: square"/>
   </g>
   <g id="line2d_97">
    <path d="M 488.727017 365.198455 
L 513.052775 78.167545 
L 537.378532 126.096214 
L 561.70429 151.312009 
L 586.030047 152.886662 
L 610.355805 154.52506 
L 634.681562 155.355892 
L 659.00732 152.725071 
L 683.333078 152.69696 
L 707.658835 153.151228 
L 731.984593 154.208844 
L 756.31035 153.416572 
L 780.636108 361.667939 
" clip-path="url(#p0af0544726)" style="fill: none; stroke: #e377c2; stroke-width: 1.5; stroke-linecap: square"/>
   </g>
   <g id="patch_9">
    <path d="M 474.131562 379.55 
L 474.131562 63.816 
" style="fill: none; stroke: #000000; stroke-width: 0.8; stroke-linejoin: miter; stroke-linecap: square"/>
   </g>
   <g id="patch_10">
    <path d="M 795.231562 379.55 
L 795.231562 63.816 
" style="fill: none; stroke: #000000; stroke-width: 0.8; stroke-linejoin: miter; stroke-linecap: square"/>
   </g>
   <g id="patch_11">
    <path d="M 474.131562 379.55 
L 795.231562 379.55 
" style="fill: none; stroke: #000000; stroke-width: 0.8; stroke-linejoin: miter; stroke-linecap: square"/>
   </g>
   <g id="patch_12">
    <path d="M 474.131562 63.816 
L 795.231562 63.816 
" style="fill: none; stroke: #000000; stroke-width: 0.8; stroke-linejoin: miter; stroke-linecap: square"/>
   </g>
   <g id="text_49">
    <!-- Performance Benchmark (CPU) -->
    <g transform="translate(541.794062 57.816) scale(0.12 -0.12)">
     <defs>
      <path id="DejaVuSans-50" d="M 1259 4147 
L 1259 2394 
L 2053 2394 
Q 2494 2394 2734 2622 
Q 2975 2850 2975 3272 
Q 2975 3691 2734 3919 
Q 2494 4147 2053 4147 
L 1259 4147 
z
M 628 4666 
L 2053 4666 
Q 2838 4666 3239 4311 
Q 3641 3956 3641 3272 
Q 3641 2581 3239 2228 
Q 2838 1875 2053 1875 
L 1259 1875 
L 1259 0 
L 628 0 
L 628 4666 
z
" transform="scale(0.015625)"/>
      <path id="DejaVuSans-66" d="M 2375 4863 
L 2375 4384 
L 1825 4384 
Q 1516 4384 1395 4259 
Q 1275 4134 1275 3809 
L 1275 3500 
L 2222 3500 
L 2222 3053 
L 1275 3053 
L 1275 0 
L 697 0 
L 697 3053 
L 147 3053 
L 147 3500 
L 697 3500 
L 697 3744 
Q 697 4328 969 4595 
Q 1241 4863 1831 4863 
L 2375 4863 
z
" transform="scale(0.015625)"/>
      <path id="DejaVuSans-28" d="M 1984 4856 
Q 1566 4138 1362 3434 
Q 1159 2731 1159 2009 
Q 1159 1288 1364 580 
Q 1569 -128 1984 -844 
L 1484 -844 
Q 1016 -109 783 600 
Q 550 1309 550 2009 
Q 550 2706 781 3412 
Q 1013 4119 1484 4856 
L 1984 4856 
z
" transform="scale(0.015625)"/>
      <path id="DejaVuSans-29" d="M 513 4856 
L 1013 4856 
Q 1481 4119 1714 3412 
Q 1947 2706 1947 2009 
Q 1947 1309 1714 600 
Q 1481 -109 1013 -844 
L 513 -844 
Q 928 -128 1133 580 
Q 1338 1288 1338 2009 
Q 1338 2731 1133 3434 
Q 928 4138 513 4856 
z
" transform="scale(0.015625)"/>
     </defs>
     <use xlink:href="#DejaVuSans-50"/>
     <use xlink:href="#DejaVuSans-65" x="56.677734"/>
     <use xlink:href="#DejaVuSans-72" x="118.201172"/>
     <use xlink:href="#DejaVuSans-66" x="159.314453"/>
     <use xlink:href="#DejaVuSans-6f" x="194.519531"/>
     <use xlink:href="#DejaVuSans-72" x="255.701172"/>
     <use xlink:href="#DejaVuSans-6d" x="295.064453"/>
     <use xlink:href="#DejaVuSans-61" x="392.476562"/>
     <use xlink:href="#DejaVuSans-6e" x="453.755859"/>
     <use xlink:href="#DejaVuSans-63" x="517.134766"/>
     <use xlink:href="#DejaVuSans-65" x="572.115234"/>
     <use xlink:href="#DejaVuSans-20" x="633.638672"/>
     <use xlink:href="#DejaVuSans-42" x="665.425781"/>
     <use xlink:href="#DejaVuSans-65" x="734.029297"/>
     <use xlink:href="#DejaVuSans-6e" x="795.552734"/>
     <use xlink:href="#DejaVuSans-63" x="858.931641"/>
     <use xlink:href="#DejaVuSans-68" x="913.912109"/>
     <use xlink:href="#DejaVuSans-6d" x="977.291016"/>
     <use xlink:href="#DejaVuSans-61" x="1074.703125"/>
     <use xlink:href="#DejaVuSans-72" x="1135.982422"/>
     <use xlink:href="#DejaVuSans-6b" x="1177.095703"/>
     <use xlink:href="#DejaVuSans-20" x="1235.005859"/>
     <use xlink:href="#DejaVuSans-28" x="1266.792969"/>
     <use xlink:href="#DejaVuSans-43" x="1305.806641"/>
     <use xlink:href="#DejaVuSans-50" x="1375.630859"/>
     <use xlink:href="#DejaVuSans-55" x="1435.933594"/>
     <use xlink:href="#DejaVuSans-29" x="1509.126953"/>
    </g>
   </g>
   <g id="legend_2">
    <g id="patch_13">
     <path d="M 667.062812 174.562875 
L 788.231562 174.562875 
Q 790.231562 174.562875 790.231562 172.562875 
L 790.231562 70.816 
Q 790.231562 68.816 788.231562 68.816 
L 667.062812 68.816 
Q 665.062812 68.816 665.062812 70.816 
L 665.062812 172.562875 
Q 665.062812 174.562875 667.062812 174.562875 
z
" style="fill: #ffffff; opacity: 0.8; stroke: #cccccc; stroke-linejoin: miter"/>
    </g>
    <g id="line2d_98">
     <path d="M 669.062812 76.914437 
L 679.062812 76.914437 
L 689.062812 76.914437 
" style="fill: none; stroke: #1f77b4; stroke-width: 1.5; stroke-linecap: square"/>
    </g>
    <g id="text_50">
     <!-- deepdanbooru -->
     <g transform="translate(697.062812 80.414437) scale(0.1 -0.1)">
      <use xlink:href="#DejaVuSans-64"/>
      <use xlink:href="#DejaVuSans-65" x="63.476562"/>
      <use xlink:href="#DejaVuSans-65" x="125"/>
      <use xlink:href="#DejaVuSans-70" x="186.523438"/>
      <use xlink:href="#DejaVuSans-64" x="250"/>
      <use xlink:href="#DejaVuSans-61" x="313.476562"/>
      <use xlink:href="#DejaVuSans-6e" x="374.755859"/>
      <use xlink:href="#DejaVuSans-62" x="438.134766"/>
      <use xlink:href="#DejaVuSans-6f" x="501.611328"/>
      <use xlink:href="#DejaVuSans-6f" x="562.792969"/>
      <use xlink:href="#DejaVuSans-72" x="623.974609"/>
      <use xlink:href="#DejaVuSans-75" x="665.087891"/>
     </g>
    </g>
    <g id="line2d_99">
     <path d="M 669.062812 91.592562 
L 679.062812 91.592562 
L 689.062812 91.592562 
" style="fill: none; stroke: #ff7f0e; stroke-width: 1.5; stroke-linecap: square"/>
    </g>
    <g id="text_51">
     <!-- wd14-swinv2 -->
     <g transform="translate(697.062812 95.092562) scale(0.1 -0.1)">
      <use xlink:href="#DejaVuSans-77"/>
      <use xlink:href="#DejaVuSans-64" x="81.787109"/>
      <use xlink:href="#DejaVuSans-31" x="145.263672"/>
      <use xlink:href="#DejaVuSans-34" x="208.886719"/>
      <use xlink:href="#DejaVuSans-2d" x="272.509766"/>
      <use xlink:href="#DejaVuSans-73" x="308.59375"/>
      <use xlink:href="#DejaVuSans-77" x="360.693359"/>
      <use xlink:href="#DejaVuSans-69" x="442.480469"/>
      <use xlink:href="#DejaVuSans-6e" x="470.263672"/>
      <use xlink:href="#DejaVuSans-76" x="533.642578"/>
      <use xlink:href="#DejaVuSans-32" x="592.822266"/>
     </g>
    </g>
    <g id="line2d_100">
     <path d="M 669.062812 106.270687 
L 679.062812 106.270687 
L 689.062812 106.270687 
" style="fill: none; stroke: #2ca02c; stroke-width: 1.5; stroke-linecap: square"/>
    </g>
    <g id="text_52">
     <!-- wd14-convnext -->
     <g transform="translate(697.062812 109.770687) scale(0.1 -0.1)">
      <use xlink:href="#DejaVuSans-77"/>
      <use xlink:href="#DejaVuSans-64" x="81.787109"/>
      <use xlink:href="#DejaVuSans-31" x="145.263672"/>
      <use xlink:href="#DejaVuSans-34" x="208.886719"/>
      <use xlink:href="#DejaVuSans-2d" x="272.509766"/>
      <use xlink:href="#DejaVuSans-63" x="308.59375"/>
      <use xlink:href="#DejaVuSans-6f" x="363.574219"/>
      <use xlink:href="#DejaVuSans-6e" x="424.755859"/>
      <use xlink:href="#DejaVuSans-76" x="488.134766"/>
      <use xlink:href="#DejaVuSans-6e" x="547.314453"/>
      <use xlink:href="#DejaVuSans-65" x="610.693359"/>
      <use xlink:href="#DejaVuSans-78" x="670.466797"/>
      <use xlink:href="#DejaVuSans-74" x="729.646484"/>
     </g>
    </g>
    <g id="line2d_101">
     <path d="M 669.062812 120.948812 
L 679.062812 120.948812 
L 689.062812 120.948812 
" style="fill: none; stroke: #d62728; stroke-width: 1.5; stroke-linecap: square"/>
    </g>
    <g id="text_53">
     <!-- wd14-convnextv2 -->
     <g transform="translate(697.062812 124.448812) scale(0.1 -0.1)">
      <use xlink:href="#DejaVuSans-77"/>
      <use xlink:href="#DejaVuSans-64" x="81.787109"/>
      <use xlink:href="#DejaVuSans-31" x="145.263672"/>
      <use xlink:href="#DejaVuSans-34" x="208.886719"/>
      <use xlink:href="#DejaVuSans-2d" x="272.509766"/>
      <use xlink:href="#DejaVuSans-63" x="308.59375"/>
      <use xlink:href="#DejaVuSans-6f" x="363.574219"/>
      <use xlink:href="#DejaVuSans-6e" x="424.755859"/>
      <use xlink:href="#DejaVuSans-76" x="488.134766"/>
      <use xlink:href="#DejaVuSans-6e" x="547.314453"/>
      <use xlink:href="#DejaVuSans-65" x="610.693359"/>
      <use xlink:href="#DejaVuSans-78" x="670.466797"/>
      <use xlink:href="#DejaVuSans-74" x="729.646484"/>
      <use xlink:href="#DejaVuSans-76" x="768.855469"/>
      <use xlink:href="#DejaVuSans-32" x="828.035156"/>
     </g>
    </g>
    <g id="line2d_102">
     <path d="M 669.062812 135.626937 
L 679.062812 135.626937 
L 689.062812 135.626937 
" style="fill: none; stroke: #9467bd; stroke-width: 1.5; stroke-linecap: square"/>
    </g>
    <g id="text_54">
     <!-- wd14-vit -->
     <g transform="translate(697.062812 139.126937) scale(0.1 -0.1)">
      <use xlink:href="#DejaVuSans-77"/>
      <use xlink:href="#DejaVuSans-64" x="81.787109"/>
      <use xlink:href="#DejaVuSans-31" x="145.263672"/>
      <use xlink:href="#DejaVuSans-34" x="208.886719"/>
      <use xlink:href="#DejaVuSans-2d" x="272.509766"/>
      <use xlink:href="#DejaVuSans-76" x="305.96875"/>
      <use xlink:href="#DejaVuSans-69" x="365.148438"/>
      <use xlink:href="#DejaVuSans-74" x="392.931641"/>
     </g>
    </g>
    <g id="line2d_103">
     <path d="M 669.062812 150.305062 
L 679.062812 150.305062 
L 689.062812 150.305062 
" style="fill: none; stroke: #8c564b; stroke-width: 1.5; stroke-linecap: square"/>
    </g>
    <g id="text_55">
     <!-- wd14-moat -->
     <g transform="translate(697.062812 153.805062) scale(0.1 -0.1)">
      <use xlink:href="#DejaVuSans-77"/>
      <use xlink:href="#DejaVuSans-64" x="81.787109"/>
      <use xlink:href="#DejaVuSans-31" x="145.263672"/>
      <use xlink:href="#DejaVuSans-34" x="208.886719"/>
      <use xlink:href="#DejaVuSans-2d" x="272.509766"/>
      <use xlink:href="#DejaVuSans-6d" x="308.59375"/>
      <use xlink:href="#DejaVuSans-6f" x="406.005859"/>
      <use xlink:href="#DejaVuSans-61" x="467.1875"/>
      <use xlink:href="#DejaVuSans-74" x="528.466797"/>
     </g>
    </g>
    <g id="line2d_104">
     <path d="M 669.062812 164.983187 
L 679.062812 164.983187 
L 689.062812 164.983187 
" style="fill: none; stroke: #e377c2; stroke-width: 1.5; stroke-linecap: square"/>
    </g>
    <g id="text_56">
     <!-- mldanbooru -->
     <g transform="translate(697.062812 168.483187) scale(0.1 -0.1)">
      <use xlink:href="#DejaVuSans-6d"/>
      <use xlink:href="#DejaVuSans-6c" x="97.412109"/>
      <use xlink:href="#DejaVuSans-64" x="125.195312"/>
      <use xlink:href="#DejaVuSans-61" x="188.671875"/>
      <use xlink:href="#DejaVuSans-6e" x="249.951172"/>
      <use xlink:href="#DejaVuSans-62" x="313.330078"/>
      <use xlink:href="#DejaVuSans-6f" x="376.806641"/>
      <use xlink:href="#DejaVuSans-6f" x="437.988281"/>
      <use xlink:href="#DejaVuSans-72" x="499.169922"/>
      <use xlink:href="#DejaVuSans-75" x="540.283203"/>
     </g>
    </g>
   </g>
  </g>
  <g id="text_57">
   <!-- Benchmark for Tagging Models -->
   <g transform="translate(308.496562 16.318125) scale(0.12 -0.12)">
    <use xlink:href="#DejaVuSans-42"/>
    <use xlink:href="#DejaVuSans-65" x="68.603516"/>
    <use xlink:href="#DejaVuSans-6e" x="130.126953"/>
    <use xlink:href="#DejaVuSans-63" x="193.505859"/>
    <use xlink:href="#DejaVuSans-68" x="248.486328"/>
    <use xlink:href="#DejaVuSans-6d" x="311.865234"/>
    <use xlink:href="#DejaVuSans-61" x="409.277344"/>
    <use xlink:href="#DejaVuSans-72" x="470.556641"/>
    <use xlink:href="#DejaVuSans-6b" x="511.669922"/>
    <use xlink:href="#DejaVuSans-20" x="569.580078"/>
    <use xlink:href="#DejaVuSans-66" x="601.367188"/>
    <use xlink:href="#DejaVuSans-6f" x="636.572266"/>
    <use xlink:href="#DejaVuSans-72" x="697.753906"/>
    <use xlink:href="#DejaVuSans-20" x="738.867188"/>
    <use xlink:href="#DejaVuSans-54" x="770.654297"/>
    <use xlink:href="#DejaVuSans-61" x="815.238281"/>
    <use xlink:href="#DejaVuSans-67" x="876.517578"/>
    <use xlink:href="#DejaVuSans-67" x="939.994141"/>
    <use xlink:href="#DejaVuSans-69" x="1003.470703"/>
    <use xlink:href="#DejaVuSans-6e" x="1031.253906"/>
    <use xlink:href="#DejaVuSans-67" x="1094.632812"/>
    <use xlink:href="#DejaVuSans-20" x="1158.109375"/>
    <use xlink:href="#DejaVuSans-4d" x="1189.896484"/>
    <use xlink:href="#DejaVuSans-6f" x="1276.175781"/>
    <use xlink:href="#DejaVuSans-64" x="1337.357422"/>
    <use xlink:href="#DejaVuSans-65" x="1400.833984"/>
    <use xlink:href="#DejaVuSans-6c" x="1462.357422"/>
    <use xlink:href="#DejaVuSans-73" x="1490.140625"/>
   </g>
   <!-- (Mean of 20 tries, run for 10 times) -->
   <g transform="translate(295.3875 29.7555) scale(0.12 -0.12)">
    <defs>
     <path id="DejaVuSans-2c" d="M 750 794 
L 1409 794 
L 1409 256 
L 897 -744 
L 494 -744 
L 750 256 
L 750 794 
z
" transform="scale(0.015625)"/>
    </defs>
    <use xlink:href="#DejaVuSans-28"/>
    <use xlink:href="#DejaVuSans-4d" x="39.013672"/>
    <use xlink:href="#DejaVuSans-65" x="125.292969"/>
    <use xlink:href="#DejaVuSans-61" x="186.816406"/>
    <use xlink:href="#DejaVuSans-6e" x="248.095703"/>
    <use xlink:href="#DejaVuSans-20" x="311.474609"/>
    <use xlink:href="#DejaVuSans-6f" x="343.261719"/>
    <use xlink:href="#DejaVuSans-66" x="404.443359"/>
    <use xlink:href="#DejaVuSans-20" x="439.648438"/>
    <use xlink:href="#DejaVuSans-32" x="471.435547"/>
    <use xlink:href="#DejaVuSans-30" x="535.058594"/>
    <use xlink:href="#DejaVuSans-20" x="598.681641"/>
    <use xlink:href="#DejaVuSans-74" x="630.46875"/>
    <use xlink:href="#DejaVuSans-72" x="669.677734"/>
    <use xlink:href="#DejaVuSans-69" x="710.791016"/>
    <use xlink:href="#DejaVuSans-65" x="738.574219"/>
    <use xlink:href="#DejaVuSans-73" x="800.097656"/>
    <use xlink:href="#DejaVuSans-2c" x="852.197266"/>
    <use xlink:href="#DejaVuSans-20" x="883.984375"/>
    <use xlink:href="#DejaVuSans-72" x="915.771484"/>
    <use xlink:href="#DejaVuSans-75" x="956.884766"/>
    <use xlink:href="#DejaVuSans-6e" x="1020.263672"/>
    <use xlink:href="#DejaVuSans-20" x="1083.642578"/>
    <use xlink:href="#DejaVuSans-66" x="1115.429688"/>
    <use xlink:href="#DejaVuSans-6f" x="1150.634766"/>
    <use xlink:href="#DejaVuSans-72" x="1211.816406"/>
    <use xlink:href="#DejaVuSans-20" x="1252.929688"/>
    <use xlink:href="#DejaVuSans-31" x="1284.716797"/>
    <use xlink:href="#DejaVuSans-30" x="1348.339844"/>
    <use xlink:href="#DejaVuSans-20" x="1411.962891"/>
    <use xlink:href="#DejaVuSans-74" x="1443.75"/>
    <use xlink:href="#DejaVuSans-69" x="1482.958984"/>
    <use xlink:href="#DejaVuSans-6d" x="1510.742188"/>
    <use xlink:href="#DejaVuSans-65" x="1608.154297"/>
    <use xlink:href="#DejaVuSans-73" x="1669.677734"/>
    <use xlink:href="#DejaVuSans-29" x="1721.777344"/>
   </g>
  </g>
 </g>
 <defs>
  <clipPath id="p5b8896f8ca">
   <rect x="77.951563" y="63.816" width="321.1" height="315.734"/>
  </clipPath>
  <clipPath id="p0af0544726">
   <rect x="474.131562" y="63.816" width="321.1" height="315.734"/>
  </clipPath>
 </defs>
</svg>
